<?xml version="1.0" encoding="UTF-8" standalone="no"?>
<!DOCTYPE svg PUBLIC "-//W3C//DTD SVG 1.1//EN"
 "http://www.w3.org/Graphics/SVG/1.1/DTD/svg11.dtd">
<!-- Generated by graphviz version 2.43.0 (0)
 -->
<!-- Title: pastafarianism Pages: 1 -->
<svg width="1988pt" height="476pt"
 viewBox="0.00 0.00 1988.15 476.00" xmlns="http://www.w3.org/2000/svg" xmlns:xlink="http://www.w3.org/1999/xlink">
<g id="graph0" class="graph" transform="scale(1 1) rotate(0) translate(4 472)">
<title>pastafarianism</title>
<polygon fill="white" stroke="transparent" points="-4,4 -4,-472 1984.15,-472 1984.15,4 -4,4"/>
<!-- CLip_seq -->
<g id="node1" class="node">
<title>CLip_seq</title>
<polygon fill="orange" stroke="black" points="922.49,-468 851.49,-468 851.49,-432 922.49,-432 922.49,-468"/>
<text text-anchor="middle" x="886.99" y="-447.8" font-family="Times,serif" font-size="9.00">Ⓜ CLip_seq</text>
</g>
<!-- Pick up branch -->
<g id="node2" class="node">
<title>Pick up branch</title>
<polygon fill="orange" stroke="black" points="417.49,-396 318.49,-396 318.49,-360 417.49,-360 417.49,-396"/>
<text text-anchor="middle" x="367.99" y="-375.8" font-family="Times,serif" font-size="9.00">Ⓜ Pick up branch</text>
</g>
<!-- CLip_seq&#45;&gt;Pick up branch -->
<g id="edge1" class="edge">
<title>CLip_seq&#45;&gt;Pick up branch</title>
<path fill="none" stroke="black" d="M851.32,-444.19C763.57,-432.35 536.5,-401.73 427.75,-387.06"/>
<polygon fill="black" stroke="black" points="427.99,-383.56 417.61,-385.69 427.05,-390.5 427.99,-383.56"/>
</g>
<!-- Insert in clip -->
<g id="node13" class="node">
<title>Insert in clip</title>
<polygon fill="orange" stroke="black" points="879.49,-396 790.49,-396 790.49,-360 879.49,-360 879.49,-396"/>
<text text-anchor="middle" x="834.99" y="-375.8" font-family="Times,serif" font-size="9.00">Ⓜ Insert in clip</text>
</g>
<!-- CLip_seq&#45;&gt;Insert in clip -->
<g id="edge12" class="edge">
<title>CLip_seq&#45;&gt;Insert in clip</title>
<path fill="none" stroke="black" d="M874.14,-431.7C867.97,-423.39 860.45,-413.28 853.67,-404.14"/>
<polygon fill="black" stroke="black" points="856.47,-402.04 847.7,-396.1 850.85,-406.22 856.47,-402.04"/>
</g>
<!-- Close Clip -->
<g id="node16" class="node">
<title>Close Clip</title>
<polygon fill="orange" stroke="black" points="975.49,-396 900.49,-396 900.49,-360 975.49,-360 975.49,-396"/>
<text text-anchor="middle" x="937.99" y="-375.8" font-family="Times,serif" font-size="9.00">Ⓜ Close Clip</text>
</g>
<!-- CLip_seq&#45;&gt;Close Clip -->
<g id="edge15" class="edge">
<title>CLip_seq&#45;&gt;Close Clip</title>
<path fill="none" stroke="black" d="M899.6,-431.7C905.59,-423.47 912.87,-413.48 919.47,-404.42"/>
<polygon fill="black" stroke="black" points="922.47,-406.25 925.53,-396.1 916.81,-402.13 922.47,-406.25"/>
</g>
<!-- Open Clip -->
<g id="node30" class="node">
<title>Open Clip</title>
<polygon fill="orange" stroke="black" points="1346.49,-396 1271.49,-396 1271.49,-360 1346.49,-360 1346.49,-396"/>
<text text-anchor="middle" x="1308.99" y="-375.8" font-family="Times,serif" font-size="9.00">Ⓜ Open Clip</text>
</g>
<!-- CLip_seq&#45;&gt;Open Clip -->
<g id="edge29" class="edge">
<title>CLip_seq&#45;&gt;Open Clip</title>
<path fill="none" stroke="black" d="M922.61,-443.09C998.41,-430.52 1175.76,-401.1 1261.25,-386.92"/>
<polygon fill="black" stroke="black" points="1261.92,-390.36 1271.21,-385.27 1260.77,-383.45 1261.92,-390.36"/>
</g>
<!-- Open if closed -->
<g id="node3" class="node">
<title>Open if closed</title>
<polygon fill="orange" stroke="black" points="136.49,-324 41.49,-324 41.49,-288 136.49,-288 136.49,-324"/>
<text text-anchor="middle" x="88.99" y="-303.8" font-family="Times,serif" font-size="9.00">Ⓜ Open if closed</text>
</g>
<!-- Pick up branch&#45;&gt;Open if closed -->
<g id="edge2" class="edge">
<title>Pick up branch&#45;&gt;Open if closed</title>
<path fill="none" stroke="black" d="M318.42,-365.99C275.5,-356.28 211.55,-341.36 146.54,-324.07"/>
<polygon fill="black" stroke="black" points="147.09,-320.59 136.52,-321.39 145.28,-327.36 147.09,-320.59"/>
</g>
<!-- Look -->
<g id="node8" class="node">
<title>Look</title>
<ellipse fill="gray" stroke="black" cx="181.99" cy="-306" rx="27" ry="18"/>
<text text-anchor="middle" x="181.99" y="-303.8" font-family="Times,serif" font-size="9.00">Look</text>
</g>
<!-- Pick up branch&#45;&gt;Look -->
<g id="edge7" class="edge">
<title>Pick up branch&#45;&gt;Look</title>
<path fill="none" stroke="black" d="M318.2,-360.82C288.77,-350.91 250.94,-337.56 217.99,-324 216.17,-323.25 214.31,-322.46 212.44,-321.64"/>
<polygon fill="black" stroke="black" points="213.71,-318.37 203.15,-317.43 210.82,-324.75 213.71,-318.37"/>
</g>
<!-- Get cable -->
<g id="node9" class="node">
<title>Get cable</title>
<ellipse fill="gray" stroke="black" cx="261.99" cy="-306" rx="35.44" ry="18"/>
<text text-anchor="middle" x="261.99" y="-303.8" font-family="Times,serif" font-size="9.00">Get cable</text>
</g>
<!-- Pick up branch&#45;&gt;Get cable -->
<g id="edge8" class="edge">
<title>Pick up branch&#45;&gt;Get cable</title>
<path fill="none" stroke="black" d="M342.06,-359.88C326.65,-349.7 307.07,-336.77 291.12,-326.24"/>
<polygon fill="black" stroke="black" points="292.96,-323.26 282.69,-320.67 289.11,-329.1 292.96,-323.26"/>
</g>
<!-- Create pick goal -->
<g id="node10" class="node">
<title>Create pick goal</title>
<ellipse fill="gray" stroke="black" cx="367.99" cy="-306" rx="53.23" ry="18"/>
<text text-anchor="middle" x="367.99" y="-303.8" font-family="Times,serif" font-size="9.00">Create pick goal</text>
</g>
<!-- Pick up branch&#45;&gt;Create pick goal -->
<g id="edge9" class="edge">
<title>Pick up branch&#45;&gt;Create pick goal</title>
<path fill="none" stroke="black" d="M367.99,-359.7C367.99,-351.98 367.99,-342.71 367.99,-334.11"/>
<polygon fill="black" stroke="black" points="371.49,-334.1 367.99,-324.1 364.49,-334.1 371.49,-334.1"/>
</g>
<!-- Approach Cable -->
<g id="node11" class="node">
<title>Approach Cable</title>
<ellipse fill="gray" stroke="black" cx="491.99" cy="-306" rx="52.58" ry="18"/>
<text text-anchor="middle" x="491.99" y="-303.8" font-family="Times,serif" font-size="9.00">Approach Cable</text>
</g>
<!-- Pick up branch&#45;&gt;Approach Cable -->
<g id="edge10" class="edge">
<title>Pick up branch&#45;&gt;Approach Cable</title>
<path fill="none" stroke="black" d="M398.33,-359.88C416.07,-349.86 438.55,-337.17 457.03,-326.73"/>
<polygon fill="black" stroke="black" points="458.76,-329.78 465.75,-321.81 455.32,-323.68 458.76,-329.78"/>
</g>
<!-- Close Gripper -->
<g id="node12" class="node">
<title>Close Gripper</title>
<ellipse fill="gray" stroke="black" cx="608.99" cy="-306" rx="46.53" ry="18"/>
<text text-anchor="middle" x="608.99" y="-303.8" font-family="Times,serif" font-size="9.00">Close Gripper</text>
</g>
<!-- Pick up branch&#45;&gt;Close Gripper -->
<g id="edge11" class="edge">
<title>Pick up branch&#45;&gt;Close Gripper</title>
<path fill="none" stroke="black" d="M417.81,-363.13C455.32,-352.6 507.96,-337.67 553.99,-324 557.3,-323.02 560.72,-321.99 564.16,-320.95"/>
<polygon fill="black" stroke="black" points="565.28,-324.27 573.82,-318 563.23,-317.57 565.28,-324.27"/>
</g>
<!-- Get gripper -->
<g id="node4" class="node">
<title>Get gripper</title>
<ellipse fill="gray" stroke="black" cx="40.99" cy="-234" rx="40.98" ry="18"/>
<text text-anchor="middle" x="40.99" y="-231.8" font-family="Times,serif" font-size="9.00">Get gripper</text>
</g>
<!-- Open if closed&#45;&gt;Get gripper -->
<g id="edge3" class="edge">
<title>Open if closed&#45;&gt;Get gripper</title>
<path fill="none" stroke="black" d="M77.13,-287.7C71.4,-279.35 64.43,-269.18 58.15,-260.02"/>
<polygon fill="black" stroke="black" points="60.93,-257.89 52.39,-251.62 55.16,-261.85 60.93,-257.89"/>
</g>
<!-- Closed -->
<g id="node5" class="node">
<title>Closed</title>
<polygon fill="cyan" stroke="black" points="173.73,-226.54 173.73,-241.46 152.21,-252 121.77,-252 100.25,-241.46 100.25,-226.54 121.77,-216 152.21,-216 173.73,-226.54"/>
<text text-anchor="middle" x="136.99" y="-231.8" font-family="Times,serif" font-size="9.00">Ⓜ Closed</text>
</g>
<!-- Open if closed&#45;&gt;Closed -->
<g id="edge4" class="edge">
<title>Open if closed&#45;&gt;Closed</title>
<path fill="none" stroke="black" d="M100.86,-287.7C106.5,-279.47 113.35,-269.48 119.56,-260.42"/>
<polygon fill="black" stroke="black" points="122.49,-262.33 125.26,-252.1 116.72,-258.37 122.49,-262.33"/>
</g>
<!-- check open -->
<g id="node6" class="node">
<title>check open</title>
<ellipse fill="gray" stroke="black" cx="83.99" cy="-162" rx="39.67" ry="18"/>
<text text-anchor="middle" x="83.99" y="-159.8" font-family="Times,serif" font-size="9.00">check open</text>
</g>
<!-- Closed&#45;&gt;check open -->
<g id="edge5" class="edge">
<title>Closed&#45;&gt;check open</title>
<path fill="none" stroke="black" d="M123.89,-215.7C117.41,-207.14 109.49,-196.67 102.41,-187.33"/>
<polygon fill="black" stroke="black" points="105.04,-185 96.22,-179.14 99.46,-189.23 105.04,-185"/>
</g>
<!-- Open Gripper -->
<g id="node7" class="node">
<title>Open Gripper</title>
<ellipse fill="gray" stroke="black" cx="188.99" cy="-162" rx="46.53" ry="18"/>
<text text-anchor="middle" x="188.99" y="-159.8" font-family="Times,serif" font-size="9.00">Open Gripper</text>
</g>
<!-- Closed&#45;&gt;Open Gripper -->
<g id="edge6" class="edge">
<title>Closed&#45;&gt;Open Gripper</title>
<path fill="none" stroke="black" d="M149.85,-215.7C156.11,-207.27 163.75,-196.97 170.62,-187.73"/>
<polygon fill="black" stroke="black" points="173.49,-189.74 176.64,-179.62 167.87,-185.56 173.49,-189.74"/>
</g>
<!-- Insert in clip* -->
<g id="node14" class="node">
<title>Insert in clip*</title>
<ellipse fill="gray" stroke="black" cx="720.99" cy="-306" rx="46.53" ry="18"/>
<text text-anchor="middle" x="720.99" y="-303.8" font-family="Times,serif" font-size="9.00">Insert in clip*</text>
</g>
<!-- Insert in clip&#45;&gt;Insert in clip* -->
<g id="edge13" class="edge">
<title>Insert in clip&#45;&gt;Insert in clip*</title>
<path fill="none" stroke="black" d="M807.1,-359.88C790.98,-349.97 770.59,-337.46 753.71,-327.09"/>
<polygon fill="black" stroke="black" points="755.09,-323.83 744.74,-321.58 751.43,-329.8 755.09,-323.83"/>
</g>
<!-- Open Gripper* -->
<g id="node15" class="node">
<title>Open Gripper*</title>
<ellipse fill="gray" stroke="black" cx="834.99" cy="-306" rx="49.8" ry="18"/>
<text text-anchor="middle" x="834.99" y="-303.8" font-family="Times,serif" font-size="9.00">Open Gripper*</text>
</g>
<!-- Insert in clip&#45;&gt;Open Gripper* -->
<g id="edge14" class="edge">
<title>Insert in clip&#45;&gt;Open Gripper*</title>
<path fill="none" stroke="black" d="M834.99,-359.7C834.99,-351.98 834.99,-342.71 834.99,-334.11"/>
<polygon fill="black" stroke="black" points="838.49,-334.1 834.99,-324.1 831.49,-334.1 838.49,-334.1"/>
</g>
<!-- Grab Clip -->
<g id="node17" class="node">
<title>Grab Clip</title>
<polygon fill="orange" stroke="black" points="976.99,-324 902.99,-324 902.99,-288 976.99,-288 976.99,-324"/>
<text text-anchor="middle" x="939.99" y="-303.8" font-family="Times,serif" font-size="9.00">Ⓜ Grab Clip</text>
</g>
<!-- Close Clip&#45;&gt;Grab Clip -->
<g id="edge16" class="edge">
<title>Close Clip&#45;&gt;Grab Clip</title>
<path fill="none" stroke="black" d="M938.49,-359.7C938.71,-351.98 938.97,-342.71 939.22,-334.11"/>
<polygon fill="black" stroke="black" points="942.72,-334.2 939.5,-324.1 935.72,-334 942.72,-334.2"/>
</g>
<!-- Open if closed* -->
<g id="node18" class="node">
<title>Open if closed*</title>
<polygon fill="orange" stroke="black" points="614.49,-252 515.49,-252 515.49,-216 614.49,-216 614.49,-252"/>
<text text-anchor="middle" x="564.99" y="-231.8" font-family="Times,serif" font-size="9.00">Ⓜ Open if closed*</text>
</g>
<!-- Grab Clip&#45;&gt;Open if closed* -->
<g id="edge17" class="edge">
<title>Grab Clip&#45;&gt;Open if closed*</title>
<path fill="none" stroke="black" d="M902.8,-290.47C899.85,-289.56 896.88,-288.72 893.99,-288 779.59,-259.61 744.33,-275.91 624.67,-251.94"/>
<polygon fill="black" stroke="black" points="625.26,-248.49 614.76,-249.9 623.85,-255.34 625.26,-248.49"/>
</g>
<!-- Grab Clip* -->
<g id="node23" class="node">
<title>Grab Clip*</title>
<ellipse fill="gray" stroke="black" cx="670.99" cy="-234" rx="38.21" ry="18"/>
<text text-anchor="middle" x="670.99" y="-231.8" font-family="Times,serif" font-size="9.00">Grab Clip*</text>
</g>
<!-- Grab Clip&#45;&gt;Grab Clip* -->
<g id="edge22" class="edge">
<title>Grab Clip&#45;&gt;Grab Clip*</title>
<path fill="none" stroke="black" d="M902.74,-290.69C899.8,-289.73 896.86,-288.82 893.99,-288 817.21,-266.1 794.85,-273.64 717.99,-252 715.08,-251.18 712.09,-250.27 709.09,-249.3"/>
<polygon fill="black" stroke="black" points="710.2,-245.99 699.61,-246.1 707.96,-252.62 710.2,-245.99"/>
</g>
<!-- Close Gripper* -->
<g id="node24" class="node">
<title>Close Gripper*</title>
<ellipse fill="gray" stroke="black" cx="776.99" cy="-234" rx="49.8" ry="18"/>
<text text-anchor="middle" x="776.99" y="-231.8" font-family="Times,serif" font-size="9.00">Close Gripper*</text>
</g>
<!-- Grab Clip&#45;&gt;Close Gripper* -->
<g id="edge23" class="edge">
<title>Grab Clip&#45;&gt;Close Gripper*</title>
<path fill="none" stroke="black" d="M902.6,-288.94C876.98,-277.94 843.05,-263.37 816.91,-252.14"/>
<polygon fill="black" stroke="black" points="818.23,-248.9 807.66,-248.17 815.47,-255.33 818.23,-248.9"/>
</g>
<!-- Close Clip* -->
<g id="node25" class="node">
<title>Close Clip*</title>
<ellipse fill="gray" stroke="black" cx="883.99" cy="-234" rx="39.02" ry="18"/>
<text text-anchor="middle" x="883.99" y="-231.8" font-family="Times,serif" font-size="9.00">Close Clip*</text>
</g>
<!-- Grab Clip&#45;&gt;Close Clip* -->
<g id="edge24" class="edge">
<title>Grab Clip&#45;&gt;Close Clip*</title>
<path fill="none" stroke="black" d="M926.15,-287.7C919.24,-279.05 910.76,-268.46 903.22,-259.04"/>
<polygon fill="black" stroke="black" points="905.89,-256.77 896.91,-251.14 900.42,-261.14 905.89,-256.77"/>
</g>
<!-- Open Gripper*** -->
<g id="node26" class="node">
<title>Open Gripper***</title>
<ellipse fill="gray" stroke="black" cx="995.99" cy="-234" rx="54.7" ry="18"/>
<text text-anchor="middle" x="995.99" y="-231.8" font-family="Times,serif" font-size="9.00">Open Gripper***</text>
</g>
<!-- Grab Clip&#45;&gt;Open Gripper*** -->
<g id="edge25" class="edge">
<title>Grab Clip&#45;&gt;Open Gripper***</title>
<path fill="none" stroke="black" d="M953.83,-287.7C960.65,-279.18 968.98,-268.76 976.43,-259.45"/>
<polygon fill="black" stroke="black" points="979.18,-261.62 982.69,-251.62 973.71,-257.24 979.18,-261.62"/>
</g>
<!-- Lock Clip (up) -->
<g id="node27" class="node">
<title>Lock Clip (up)</title>
<ellipse fill="gray" stroke="black" cx="1116.99" cy="-234" rx="47.84" ry="18"/>
<text text-anchor="middle" x="1116.99" y="-231.8" font-family="Times,serif" font-size="9.00">Lock Clip (up)</text>
</g>
<!-- Grab Clip&#45;&gt;Lock Clip (up) -->
<g id="edge26" class="edge">
<title>Grab Clip&#45;&gt;Lock Clip (up)</title>
<path fill="none" stroke="black" d="M977.1,-290.33C1006,-278.89 1046.1,-263.04 1075.96,-251.23"/>
<polygon fill="black" stroke="black" points="1077.26,-254.48 1085.27,-247.55 1074.68,-247.97 1077.26,-254.48"/>
</g>
<!-- Close Gripper** -->
<g id="node28" class="node">
<title>Close Gripper**</title>
<ellipse fill="gray" stroke="black" cx="1234.99" cy="-234" rx="51.92" ry="18"/>
<text text-anchor="middle" x="1234.99" y="-231.8" font-family="Times,serif" font-size="9.00">Close Gripper**</text>
</g>
<!-- Grab Clip&#45;&gt;Close Gripper** -->
<g id="edge27" class="edge">
<title>Grab Clip&#45;&gt;Close Gripper**</title>
<path fill="none" stroke="black" d="M977.23,-290.65C980.18,-289.7 983.12,-288.8 985.99,-288 1067.95,-265.18 1091.17,-271.44 1173.99,-252 1178.15,-251.03 1182.44,-249.96 1186.74,-248.84"/>
<polygon fill="black" stroke="black" points="1187.96,-252.14 1196.72,-246.19 1186.16,-245.38 1187.96,-252.14"/>
</g>
<!-- Lock Clip (down) -->
<g id="node29" class="node">
<title>Lock Clip (down)</title>
<ellipse fill="gray" stroke="black" cx="1359.99" cy="-234" rx="54.7" ry="18"/>
<text text-anchor="middle" x="1359.99" y="-231.8" font-family="Times,serif" font-size="9.00">Lock Clip (down)</text>
</g>
<!-- Grab Clip&#45;&gt;Lock Clip (down) -->
<g id="edge28" class="edge">
<title>Grab Clip&#45;&gt;Lock Clip (down)</title>
<path fill="none" stroke="black" d="M977.17,-290.42C980.13,-289.51 983.09,-288.69 985.99,-288 1120.89,-255.73 1159.72,-277.87 1295.99,-252 1300.69,-251.11 1305.54,-250.06 1310.39,-248.93"/>
<polygon fill="black" stroke="black" points="1311.37,-252.29 1320.25,-246.5 1309.71,-245.49 1311.37,-252.29"/>
</g>
<!-- Get gripper* -->
<g id="node19" class="node">
<title>Get gripper*</title>
<ellipse fill="gray" stroke="black" cx="513.99" cy="-162" rx="43.76" ry="18"/>
<text text-anchor="middle" x="513.99" y="-159.8" font-family="Times,serif" font-size="9.00">Get gripper*</text>
</g>
<!-- Open if closed*&#45;&gt;Get gripper* -->
<g id="edge18" class="edge">
<title>Open if closed*&#45;&gt;Get gripper*</title>
<path fill="none" stroke="black" d="M552.39,-215.7C546.24,-207.27 538.74,-196.97 532.01,-187.73"/>
<polygon fill="black" stroke="black" points="534.82,-185.64 526.1,-179.62 529.16,-189.77 534.82,-185.64"/>
</g>
<!-- Closed* -->
<g id="node20" class="node">
<title>Closed*</title>
<polygon fill="cyan" stroke="black" points="655.98,-154.54 655.98,-169.46 632.56,-180 599.43,-180 576,-169.46 576,-154.54 599.43,-144 632.56,-144 655.98,-154.54"/>
<text text-anchor="middle" x="615.99" y="-159.8" font-family="Times,serif" font-size="9.00">Ⓜ Closed*</text>
</g>
<!-- Open if closed*&#45;&gt;Closed* -->
<g id="edge19" class="edge">
<title>Open if closed*&#45;&gt;Closed*</title>
<path fill="none" stroke="black" d="M577.6,-215.7C583.59,-207.47 590.87,-197.48 597.47,-188.42"/>
<polygon fill="black" stroke="black" points="600.47,-190.25 603.53,-180.1 594.81,-186.13 600.47,-190.25"/>
</g>
<!-- check open* -->
<g id="node21" class="node">
<title>check open*</title>
<ellipse fill="gray" stroke="black" cx="558.99" cy="-90" rx="42.95" ry="18"/>
<text text-anchor="middle" x="558.99" y="-87.8" font-family="Times,serif" font-size="9.00">check open*</text>
</g>
<!-- Closed*&#45;&gt;check open* -->
<g id="edge20" class="edge">
<title>Closed*&#45;&gt;check open*</title>
<path fill="none" stroke="black" d="M601.9,-143.7C594.86,-135.05 586.24,-124.46 578.57,-115.04"/>
<polygon fill="black" stroke="black" points="581.17,-112.69 572.14,-107.14 575.74,-117.11 581.17,-112.69"/>
</g>
<!-- Open Gripper** -->
<g id="node22" class="node">
<title>Open Gripper**</title>
<ellipse fill="gray" stroke="black" cx="671.99" cy="-90" rx="51.92" ry="18"/>
<text text-anchor="middle" x="671.99" y="-87.8" font-family="Times,serif" font-size="9.00">Open Gripper**</text>
</g>
<!-- Closed*&#45;&gt;Open Gripper** -->
<g id="edge21" class="edge">
<title>Closed*&#45;&gt;Open Gripper**</title>
<path fill="none" stroke="black" d="M629.83,-143.7C636.65,-135.18 644.98,-124.76 652.43,-115.45"/>
<polygon fill="black" stroke="black" points="655.18,-117.62 658.69,-107.62 649.71,-113.24 655.18,-117.62"/>
</g>
<!-- Alignment -->
<g id="node31" class="node">
<title>Alignment</title>
<ellipse fill="gray" stroke="black" cx="1032.99" cy="-306" rx="37.56" ry="18"/>
<text text-anchor="middle" x="1032.99" y="-303.8" font-family="Times,serif" font-size="9.00">Alignment</text>
</g>
<!-- Open Clip&#45;&gt;Alignment -->
<g id="edge30" class="edge">
<title>Open Clip&#45;&gt;Alignment</title>
<path fill="none" stroke="black" d="M1271.35,-369.73C1225.68,-360.58 1146.52,-343.65 1079.99,-324 1077.09,-323.14 1074.11,-322.2 1071.12,-321.22"/>
<polygon fill="black" stroke="black" points="1072.24,-317.91 1061.64,-317.98 1069.97,-324.53 1072.24,-317.91"/>
</g>
<!-- Open Gripper**** -->
<g id="node32" class="node">
<title>Open Gripper****</title>
<ellipse fill="gray" stroke="black" cx="1145.99" cy="-306" rx="57.32" ry="18"/>
<text text-anchor="middle" x="1145.99" y="-303.8" font-family="Times,serif" font-size="9.00">Open Gripper****</text>
</g>
<!-- Open Clip&#45;&gt;Open Gripper**** -->
<g id="edge31" class="edge">
<title>Open Clip&#45;&gt;Open Gripper****</title>
<path fill="none" stroke="black" d="M1271.19,-360.76C1246.25,-350.06 1213.57,-336.02 1187.85,-324.98"/>
<polygon fill="black" stroke="black" points="1188.94,-321.63 1178.37,-320.9 1186.17,-328.07 1188.94,-321.63"/>
</g>
<!-- Grab clip -->
<g id="node33" class="node">
<title>Grab clip</title>
<ellipse fill="gray" stroke="black" cx="1255.99" cy="-306" rx="34.78" ry="18"/>
<text text-anchor="middle" x="1255.99" y="-303.8" font-family="Times,serif" font-size="9.00">Grab clip</text>
</g>
<!-- Open Clip&#45;&gt;Grab clip -->
<g id="edge32" class="edge">
<title>Open Clip&#45;&gt;Grab clip</title>
<path fill="none" stroke="black" d="M1295.89,-359.7C1289.41,-351.14 1281.49,-340.67 1274.41,-331.33"/>
<polygon fill="black" stroke="black" points="1277.04,-329 1268.22,-323.14 1271.46,-333.23 1277.04,-329"/>
</g>
<!-- Close Gripper*** -->
<g id="node34" class="node">
<title>Close Gripper***</title>
<ellipse fill="gray" stroke="black" cx="1362.99" cy="-306" rx="54.7" ry="18"/>
<text text-anchor="middle" x="1362.99" y="-303.8" font-family="Times,serif" font-size="9.00">Close Gripper***</text>
</g>
<!-- Open Clip&#45;&gt;Close Gripper*** -->
<g id="edge33" class="edge">
<title>Open Clip&#45;&gt;Close Gripper***</title>
<path fill="none" stroke="black" d="M1322.34,-359.7C1328.84,-351.27 1336.78,-340.97 1343.91,-331.73"/>
<polygon fill="black" stroke="black" points="1346.83,-333.68 1350.17,-323.62 1341.29,-329.4 1346.83,-333.68"/>
</g>
<!-- Unlock clip -->
<g id="node35" class="node">
<title>Unlock clip</title>
<ellipse fill="gray" stroke="black" cx="1475.99" cy="-306" rx="39.67" ry="18"/>
<text text-anchor="middle" x="1475.99" y="-303.8" font-family="Times,serif" font-size="9.00">Unlock clip</text>
</g>
<!-- Open Clip&#45;&gt;Unlock clip -->
<g id="edge34" class="edge">
<title>Open Clip&#45;&gt;Unlock clip</title>
<path fill="none" stroke="black" d="M1346.89,-361.12C1374.35,-349.61 1411.3,-334.12 1438.64,-322.66"/>
<polygon fill="black" stroke="black" points="1440,-325.88 1447.87,-318.79 1437.3,-319.42 1440,-325.88"/>
</g>
<!-- Open Gripper***** -->
<g id="node36" class="node">
<title>Open Gripper*****</title>
<ellipse fill="gray" stroke="black" cx="1593.99" cy="-306" rx="60.09" ry="18"/>
<text text-anchor="middle" x="1593.99" y="-303.8" font-family="Times,serif" font-size="9.00">Open Gripper*****</text>
</g>
<!-- Open Clip&#45;&gt;Open Gripper***** -->
<g id="edge35" class="edge">
<title>Open Clip&#45;&gt;Open Gripper*****</title>
<path fill="none" stroke="black" d="M1346.84,-367.72C1389.97,-357.15 1462.56,-339.35 1524.99,-324 1529.62,-322.86 1534.41,-321.68 1539.23,-320.5"/>
<polygon fill="black" stroke="black" points="1540.21,-323.86 1549.08,-318.07 1538.54,-317.06 1540.21,-323.86"/>
</g>
<!-- Grab Clip** -->
<g id="node37" class="node">
<title>Grab Clip**</title>
<polygon fill="orange" stroke="black" points="1755.49,-324 1672.49,-324 1672.49,-288 1755.49,-288 1755.49,-324"/>
<text text-anchor="middle" x="1713.99" y="-303.8" font-family="Times,serif" font-size="9.00">Ⓜ Grab Clip**</text>
</g>
<!-- Open Clip&#45;&gt;Grab Clip** -->
<g id="edge36" class="edge">
<title>Open Clip&#45;&gt;Grab Clip**</title>
<path fill="none" stroke="black" d="M1346.61,-373.53C1410,-367.22 1542.17,-352.05 1662.65,-323.83"/>
<polygon fill="black" stroke="black" points="1663.49,-327.23 1672.41,-321.51 1661.88,-320.42 1663.49,-327.23"/>
</g>
<!-- Pick up branch* -->
<g id="node38" class="node">
<title>Pick up branch*</title>
<polygon fill="orange" stroke="black" points="1659.99,-252 1555.99,-252 1555.99,-216 1659.99,-216 1659.99,-252"/>
<text text-anchor="middle" x="1607.99" y="-231.8" font-family="Times,serif" font-size="9.00">Ⓜ Pick up branch*</text>
</g>
<!-- Grab Clip**&#45;&gt;Pick up branch* -->
<g id="edge37" class="edge">
<title>Grab Clip**&#45;&gt;Pick up branch*</title>
<path fill="none" stroke="black" d="M1688.06,-287.88C1674.33,-278.81 1657.29,-267.55 1642.46,-257.76"/>
<polygon fill="black" stroke="black" points="1644.3,-254.78 1634.02,-252.19 1640.44,-260.62 1644.3,-254.78"/>
</g>
<!-- Open clip -->
<g id="node49" class="node">
<title>Open clip</title>
<ellipse fill="gray" stroke="black" cx="1713.99" cy="-234" rx="35.59" ry="18"/>
<text text-anchor="middle" x="1713.99" y="-231.8" font-family="Times,serif" font-size="9.00">Open clip</text>
</g>
<!-- Grab Clip**&#45;&gt;Open clip -->
<g id="edge48" class="edge">
<title>Grab Clip**&#45;&gt;Open clip</title>
<path fill="none" stroke="black" d="M1713.99,-287.7C1713.99,-279.98 1713.99,-270.71 1713.99,-262.11"/>
<polygon fill="black" stroke="black" points="1717.49,-262.1 1713.99,-252.1 1710.49,-262.1 1717.49,-262.1"/>
</g>
<!-- Open Gripper******* -->
<g id="node50" class="node">
<title>Open Gripper*******</title>
<ellipse fill="gray" stroke="black" cx="1832.99" cy="-234" rx="65.48" ry="18"/>
<text text-anchor="middle" x="1832.99" y="-231.8" font-family="Times,serif" font-size="9.00">Open Gripper*******</text>
</g>
<!-- Grab Clip**&#45;&gt;Open Gripper******* -->
<g id="edge49" class="edge">
<title>Grab Clip**&#45;&gt;Open Gripper*******</title>
<path fill="none" stroke="black" d="M1743.1,-287.88C1759.63,-278.16 1780.42,-265.92 1797.85,-255.67"/>
<polygon fill="black" stroke="black" points="1799.77,-258.6 1806.62,-250.51 1796.22,-252.57 1799.77,-258.6"/>
</g>
<!-- Open if closed** -->
<g id="node39" class="node">
<title>Open if closed**</title>
<polygon fill="orange" stroke="black" points="1423.99,-180 1319.99,-180 1319.99,-144 1423.99,-144 1423.99,-180"/>
<text text-anchor="middle" x="1371.99" y="-159.8" font-family="Times,serif" font-size="9.00">Ⓜ Open if closed**</text>
</g>
<!-- Pick up branch*&#45;&gt;Open if closed** -->
<g id="edge38" class="edge">
<title>Pick up branch*&#45;&gt;Open if closed**</title>
<path fill="none" stroke="black" d="M1555.91,-217.55C1520.02,-206.91 1472.16,-192.71 1434.26,-181.47"/>
<polygon fill="black" stroke="black" points="1434.93,-178.02 1424.35,-178.53 1432.94,-184.73 1434.93,-178.02"/>
</g>
<!-- Look* -->
<g id="node44" class="node">
<title>Look*</title>
<ellipse fill="gray" stroke="black" cx="1468.99" cy="-162" rx="27" ry="18"/>
<text text-anchor="middle" x="1468.99" y="-159.8" font-family="Times,serif" font-size="9.00">Look*</text>
</g>
<!-- Pick up branch*&#45;&gt;Look* -->
<g id="edge43" class="edge">
<title>Pick up branch*&#45;&gt;Look*</title>
<path fill="none" stroke="black" d="M1573.99,-215.88C1551.16,-204.38 1521.36,-189.37 1499.34,-178.28"/>
<polygon fill="black" stroke="black" points="1500.63,-175.01 1490.12,-173.64 1497.48,-181.26 1500.63,-175.01"/>
</g>
<!-- Get cable* -->
<g id="node45" class="node">
<title>Get cable*</title>
<ellipse fill="gray" stroke="black" cx="1551.99" cy="-162" rx="37.56" ry="18"/>
<text text-anchor="middle" x="1551.99" y="-159.8" font-family="Times,serif" font-size="9.00">Get cable*</text>
</g>
<!-- Pick up branch*&#45;&gt;Get cable* -->
<g id="edge44" class="edge">
<title>Pick up branch*&#45;&gt;Get cable*</title>
<path fill="none" stroke="black" d="M1594.15,-215.7C1587.24,-207.05 1578.76,-196.46 1571.22,-187.04"/>
<polygon fill="black" stroke="black" points="1573.89,-184.77 1564.91,-179.14 1568.42,-189.14 1573.89,-184.77"/>
</g>
<!-- Create pick goal* -->
<g id="node46" class="node">
<title>Create pick goal*</title>
<ellipse fill="gray" stroke="black" cx="1663.99" cy="-162" rx="56.01" ry="18"/>
<text text-anchor="middle" x="1663.99" y="-159.8" font-family="Times,serif" font-size="9.00">Create pick goal*</text>
</g>
<!-- Pick up branch*&#45;&gt;Create pick goal* -->
<g id="edge45" class="edge">
<title>Pick up branch*&#45;&gt;Create pick goal*</title>
<path fill="none" stroke="black" d="M1621.83,-215.7C1628.65,-207.18 1636.98,-196.76 1644.43,-187.45"/>
<polygon fill="black" stroke="black" points="1647.18,-189.62 1650.69,-179.62 1641.71,-185.24 1647.18,-189.62"/>
</g>
<!-- Approach Cable* -->
<g id="node47" class="node">
<title>Approach Cable*</title>
<ellipse fill="gray" stroke="black" cx="1792.99" cy="-162" rx="54.7" ry="18"/>
<text text-anchor="middle" x="1792.99" y="-159.8" font-family="Times,serif" font-size="9.00">Approach Cable*</text>
</g>
<!-- Pick up branch*&#45;&gt;Approach Cable* -->
<g id="edge46" class="edge">
<title>Pick up branch*&#45;&gt;Approach Cable*</title>
<path fill="none" stroke="black" d="M1653.25,-215.88C1682.37,-204.86 1720.03,-190.61 1748.91,-179.68"/>
<polygon fill="black" stroke="black" points="1750.23,-182.92 1758.35,-176.11 1747.76,-176.37 1750.23,-182.92"/>
</g>
<!-- Close Gripper**** -->
<g id="node48" class="node">
<title>Close Gripper****</title>
<ellipse fill="gray" stroke="black" cx="1922.99" cy="-162" rx="57.32" ry="18"/>
<text text-anchor="middle" x="1922.99" y="-159.8" font-family="Times,serif" font-size="9.00">Close Gripper****</text>
</g>
<!-- Pick up branch*&#45;&gt;Close Gripper**** -->
<g id="edge47" class="edge">
<title>Pick up branch*&#45;&gt;Close Gripper****</title>
<path fill="none" stroke="black" d="M1660.16,-218.16C1663.14,-217.4 1666.1,-216.68 1668.99,-216 1751.82,-196.56 1773.98,-198.62 1856.99,-180 1861.58,-178.97 1866.34,-177.85 1871.11,-176.69"/>
<polygon fill="black" stroke="black" points="1871.97,-180.08 1880.84,-174.28 1870.29,-173.29 1871.97,-180.08"/>
</g>
<!-- Get gripper** -->
<g id="node40" class="node">
<title>Get gripper**</title>
<ellipse fill="gray" stroke="black" cx="1317.99" cy="-90" rx="46.38" ry="18"/>
<text text-anchor="middle" x="1317.99" y="-87.8" font-family="Times,serif" font-size="9.00">Get gripper**</text>
</g>
<!-- Open if closed**&#45;&gt;Get gripper** -->
<g id="edge39" class="edge">
<title>Open if closed**&#45;&gt;Get gripper**</title>
<path fill="none" stroke="black" d="M1358.64,-143.7C1352.14,-135.27 1344.2,-124.97 1337.07,-115.73"/>
<polygon fill="black" stroke="black" points="1339.69,-113.4 1330.81,-107.62 1334.15,-117.68 1339.69,-113.4"/>
</g>
<!-- Closed** -->
<g id="node41" class="node">
<title>Closed**</title>
<polygon fill="cyan" stroke="black" points="1467.48,-82.54 1467.48,-97.46 1442.59,-108 1407.39,-108 1382.5,-97.46 1382.5,-82.54 1407.39,-72 1442.59,-72 1467.48,-82.54"/>
<text text-anchor="middle" x="1424.99" y="-87.8" font-family="Times,serif" font-size="9.00">Ⓜ Closed**</text>
</g>
<!-- Open if closed**&#45;&gt;Closed** -->
<g id="edge40" class="edge">
<title>Open if closed**&#45;&gt;Closed**</title>
<path fill="none" stroke="black" d="M1385.09,-143.7C1391.38,-135.39 1399.04,-125.28 1405.96,-116.14"/>
<polygon fill="black" stroke="black" points="1408.8,-118.19 1412.04,-108.1 1403.21,-113.96 1408.8,-118.19"/>
</g>
<!-- check open** -->
<g id="node42" class="node">
<title>check open**</title>
<ellipse fill="gray" stroke="black" cx="1361.99" cy="-18" rx="45.07" ry="18"/>
<text text-anchor="middle" x="1361.99" y="-15.8" font-family="Times,serif" font-size="9.00">check open**</text>
</g>
<!-- Closed**&#45;&gt;check open** -->
<g id="edge41" class="edge">
<title>Closed**&#45;&gt;check open**</title>
<path fill="none" stroke="black" d="M1409.42,-71.7C1401.56,-62.97 1391.91,-52.24 1383.37,-42.75"/>
<polygon fill="black" stroke="black" points="1385.81,-40.24 1376.52,-35.14 1380.61,-44.92 1385.81,-40.24"/>
</g>
<!-- Open Gripper****** -->
<g id="node43" class="node">
<title>Open Gripper******</title>
<ellipse fill="gray" stroke="black" cx="1486.99" cy="-18" rx="62.21" ry="18"/>
<text text-anchor="middle" x="1486.99" y="-15.8" font-family="Times,serif" font-size="9.00">Open Gripper******</text>
</g>
<!-- Closed**&#45;&gt;Open Gripper****** -->
<g id="edge42" class="edge">
<title>Closed**&#45;&gt;Open Gripper******</title>
<path fill="none" stroke="black" d="M1440.32,-71.7C1447.94,-63.09 1457.27,-52.55 1465.59,-43.17"/>
<polygon fill="black" stroke="black" points="1468.26,-45.43 1472.27,-35.62 1463.02,-40.79 1468.26,-45.43"/>
</g>
</g>
</svg>
