<?xml version="1.0" encoding="UTF-8" standalone="no"?>
<!DOCTYPE svg PUBLIC "-//W3C//DTD SVG 1.1//EN"
 "http://www.w3.org/Graphics/SVG/1.1/DTD/svg11.dtd">
<!-- Generated by graphviz version 2.43.0 (0)
 -->
<!-- Title: pastafarianism Pages: 1 -->
<svg width="2112pt" height="404pt"
 viewBox="0.00 0.00 2112.23 404.00" xmlns="http://www.w3.org/2000/svg" xmlns:xlink="http://www.w3.org/1999/xlink">
<g id="graph0" class="graph" transform="scale(1 1) rotate(0) translate(4 400)">
<title>pastafarianism</title>
<polygon fill="white" stroke="transparent" points="-4,4 -4,-400 2108.23,-400 2108.23,4 -4,4"/>
<!-- forward -->
<g id="node1" class="node">
<title>forward</title>
<polygon fill="orange" stroke="black" points="919.49,-396 854.49,-396 854.49,-360 919.49,-360 919.49,-396"/>
<text text-anchor="middle" x="886.99" y="-375.8" font-family="Times,serif" font-size="9.00">Ⓜ forward</text>
</g>
<!-- Pick up branch -->
<g id="node2" class="node">
<title>Pick up branch</title>
<polygon fill="orange" stroke="black" points="417.49,-324 318.49,-324 318.49,-288 417.49,-288 417.49,-324"/>
<text text-anchor="middle" x="367.99" y="-303.8" font-family="Times,serif" font-size="9.00">Ⓜ Pick up branch</text>
</g>
<!-- forward&#45;&gt;Pick up branch -->
<g id="edge1" class="edge">
<title>forward&#45;&gt;Pick up branch</title>
<path fill="none" stroke="black" d="M854.13,-372.57C768.46,-361.01 537.3,-329.84 427.48,-315.02"/>
<polygon fill="black" stroke="black" points="427.94,-311.55 417.56,-313.69 427,-318.49 427.94,-311.55"/>
</g>
<!-- Insert in clip -->
<g id="node13" class="node">
<title>Insert in clip</title>
<polygon fill="orange" stroke="black" points="879.49,-324 790.49,-324 790.49,-288 879.49,-288 879.49,-324"/>
<text text-anchor="middle" x="834.99" y="-303.8" font-family="Times,serif" font-size="9.00">Ⓜ Insert in clip</text>
</g>
<!-- forward&#45;&gt;Insert in clip -->
<g id="edge12" class="edge">
<title>forward&#45;&gt;Insert in clip</title>
<path fill="none" stroke="black" d="M874.14,-359.7C867.97,-351.39 860.45,-341.28 853.67,-332.14"/>
<polygon fill="black" stroke="black" points="856.47,-330.04 847.7,-324.1 850.85,-334.22 856.47,-330.04"/>
</g>
<!-- Close Clip -->
<g id="node16" class="node">
<title>Close Clip</title>
<polygon fill="orange" stroke="black" points="1018.49,-324 943.49,-324 943.49,-288 1018.49,-288 1018.49,-324"/>
<text text-anchor="middle" x="980.99" y="-303.8" font-family="Times,serif" font-size="9.00">Ⓜ Close Clip</text>
</g>
<!-- forward&#45;&gt;Close Clip -->
<g id="edge15" class="edge">
<title>forward&#45;&gt;Close Clip</title>
<path fill="none" stroke="black" d="M910.23,-359.7C922.18,-350.8 936.91,-339.82 949.84,-330.2"/>
<polygon fill="black" stroke="black" points="952.09,-332.88 958.02,-324.1 947.91,-327.27 952.09,-332.88"/>
</g>
<!-- Open Clip -->
<g id="node32" class="node">
<title>Open Clip</title>
<polygon fill="orange" stroke="black" points="1523.49,-324 1448.49,-324 1448.49,-288 1523.49,-288 1523.49,-324"/>
<text text-anchor="middle" x="1485.99" y="-303.8" font-family="Times,serif" font-size="9.00">Ⓜ Open Clip</text>
</g>
<!-- forward&#45;&gt;Open Clip -->
<g id="edge31" class="edge">
<title>forward&#45;&gt;Open Clip</title>
<path fill="none" stroke="black" d="M919.62,-373.19C1019.39,-361.53 1320.72,-326.31 1438.29,-312.57"/>
<polygon fill="black" stroke="black" points="1438.89,-316.03 1448.42,-311.39 1438.08,-309.08 1438.89,-316.03"/>
</g>
<!-- Open if closed -->
<g id="node3" class="node">
<title>Open if closed</title>
<polygon fill="orange" stroke="black" points="136.49,-252 41.49,-252 41.49,-216 136.49,-216 136.49,-252"/>
<text text-anchor="middle" x="88.99" y="-231.8" font-family="Times,serif" font-size="9.00">Ⓜ Open if closed</text>
</g>
<!-- Pick up branch&#45;&gt;Open if closed -->
<g id="edge2" class="edge">
<title>Pick up branch&#45;&gt;Open if closed</title>
<path fill="none" stroke="black" d="M318.42,-293.99C275.5,-284.28 211.55,-269.36 146.54,-252.07"/>
<polygon fill="black" stroke="black" points="147.09,-248.59 136.52,-249.39 145.28,-255.36 147.09,-248.59"/>
</g>
<!-- Look -->
<g id="node8" class="node">
<title>Look</title>
<ellipse fill="gray" stroke="black" cx="181.99" cy="-234" rx="27" ry="18"/>
<text text-anchor="middle" x="181.99" y="-231.8" font-family="Times,serif" font-size="9.00">Look</text>
</g>
<!-- Pick up branch&#45;&gt;Look -->
<g id="edge7" class="edge">
<title>Pick up branch&#45;&gt;Look</title>
<path fill="none" stroke="black" d="M318.2,-288.82C288.77,-278.91 250.94,-265.56 217.99,-252 216.17,-251.25 214.31,-250.46 212.44,-249.64"/>
<polygon fill="black" stroke="black" points="213.71,-246.37 203.15,-245.43 210.82,-252.75 213.71,-246.37"/>
</g>
<!-- Get cable -->
<g id="node9" class="node">
<title>Get cable</title>
<ellipse fill="gray" stroke="black" cx="261.99" cy="-234" rx="35.44" ry="18"/>
<text text-anchor="middle" x="261.99" y="-231.8" font-family="Times,serif" font-size="9.00">Get cable</text>
</g>
<!-- Pick up branch&#45;&gt;Get cable -->
<g id="edge8" class="edge">
<title>Pick up branch&#45;&gt;Get cable</title>
<path fill="none" stroke="black" d="M342.06,-287.88C326.65,-277.7 307.07,-264.77 291.12,-254.24"/>
<polygon fill="black" stroke="black" points="292.96,-251.26 282.69,-248.67 289.11,-257.1 292.96,-251.26"/>
</g>
<!-- Create pick goal -->
<g id="node10" class="node">
<title>Create pick goal</title>
<ellipse fill="gray" stroke="black" cx="367.99" cy="-234" rx="53.23" ry="18"/>
<text text-anchor="middle" x="367.99" y="-231.8" font-family="Times,serif" font-size="9.00">Create pick goal</text>
</g>
<!-- Pick up branch&#45;&gt;Create pick goal -->
<g id="edge9" class="edge">
<title>Pick up branch&#45;&gt;Create pick goal</title>
<path fill="none" stroke="black" d="M367.99,-287.7C367.99,-279.98 367.99,-270.71 367.99,-262.11"/>
<polygon fill="black" stroke="black" points="371.49,-262.1 367.99,-252.1 364.49,-262.1 371.49,-262.1"/>
</g>
<!-- Approach Cable -->
<g id="node11" class="node">
<title>Approach Cable</title>
<ellipse fill="gray" stroke="black" cx="491.99" cy="-234" rx="52.58" ry="18"/>
<text text-anchor="middle" x="491.99" y="-231.8" font-family="Times,serif" font-size="9.00">Approach Cable</text>
</g>
<!-- Pick up branch&#45;&gt;Approach Cable -->
<g id="edge10" class="edge">
<title>Pick up branch&#45;&gt;Approach Cable</title>
<path fill="none" stroke="black" d="M398.33,-287.88C416.07,-277.86 438.55,-265.17 457.03,-254.73"/>
<polygon fill="black" stroke="black" points="458.76,-257.78 465.75,-249.81 455.32,-251.68 458.76,-257.78"/>
</g>
<!-- Close Gripper -->
<g id="node12" class="node">
<title>Close Gripper</title>
<ellipse fill="gray" stroke="black" cx="608.99" cy="-234" rx="46.53" ry="18"/>
<text text-anchor="middle" x="608.99" y="-231.8" font-family="Times,serif" font-size="9.00">Close Gripper</text>
</g>
<!-- Pick up branch&#45;&gt;Close Gripper -->
<g id="edge11" class="edge">
<title>Pick up branch&#45;&gt;Close Gripper</title>
<path fill="none" stroke="black" d="M417.81,-291.13C455.32,-280.6 507.96,-265.67 553.99,-252 557.3,-251.02 560.72,-249.99 564.16,-248.95"/>
<polygon fill="black" stroke="black" points="565.28,-252.27 573.82,-246 563.23,-245.57 565.28,-252.27"/>
</g>
<!-- Get gripper -->
<g id="node4" class="node">
<title>Get gripper</title>
<ellipse fill="gray" stroke="black" cx="40.99" cy="-162" rx="40.98" ry="18"/>
<text text-anchor="middle" x="40.99" y="-159.8" font-family="Times,serif" font-size="9.00">Get gripper</text>
</g>
<!-- Open if closed&#45;&gt;Get gripper -->
<g id="edge3" class="edge">
<title>Open if closed&#45;&gt;Get gripper</title>
<path fill="none" stroke="black" d="M77.13,-215.7C71.4,-207.35 64.43,-197.18 58.15,-188.02"/>
<polygon fill="black" stroke="black" points="60.93,-185.89 52.39,-179.62 55.16,-189.85 60.93,-185.89"/>
</g>
<!-- Closed -->
<g id="node5" class="node">
<title>Closed</title>
<polygon fill="cyan" stroke="black" points="173.73,-154.54 173.73,-169.46 152.21,-180 121.77,-180 100.25,-169.46 100.25,-154.54 121.77,-144 152.21,-144 173.73,-154.54"/>
<text text-anchor="middle" x="136.99" y="-159.8" font-family="Times,serif" font-size="9.00">Ⓜ Closed</text>
</g>
<!-- Open if closed&#45;&gt;Closed -->
<g id="edge4" class="edge">
<title>Open if closed&#45;&gt;Closed</title>
<path fill="none" stroke="black" d="M100.86,-215.7C106.5,-207.47 113.35,-197.48 119.56,-188.42"/>
<polygon fill="black" stroke="black" points="122.49,-190.33 125.26,-180.1 116.72,-186.37 122.49,-190.33"/>
</g>
<!-- check open -->
<g id="node6" class="node">
<title>check open</title>
<ellipse fill="gray" stroke="black" cx="84.99" cy="-90" rx="39.67" ry="18"/>
<text text-anchor="middle" x="84.99" y="-87.8" font-family="Times,serif" font-size="9.00">check open</text>
</g>
<!-- Closed&#45;&gt;check open -->
<g id="edge5" class="edge">
<title>Closed&#45;&gt;check open</title>
<path fill="none" stroke="black" d="M124.14,-143.7C117.87,-135.27 110.23,-124.97 103.36,-115.73"/>
<polygon fill="black" stroke="black" points="106.11,-113.56 97.34,-107.62 100.49,-117.74 106.11,-113.56"/>
</g>
<!-- Open Gripper -->
<g id="node7" class="node">
<title>Open Gripper</title>
<ellipse fill="gray" stroke="black" cx="189.99" cy="-90" rx="46.53" ry="18"/>
<text text-anchor="middle" x="189.99" y="-87.8" font-family="Times,serif" font-size="9.00">Open Gripper</text>
</g>
<!-- Closed&#45;&gt;Open Gripper -->
<g id="edge6" class="edge">
<title>Closed&#45;&gt;Open Gripper</title>
<path fill="none" stroke="black" d="M150.09,-143.7C156.48,-135.27 164.27,-124.97 171.27,-115.73"/>
<polygon fill="black" stroke="black" points="174.16,-117.71 177.41,-107.62 168.58,-113.48 174.16,-117.71"/>
</g>
<!-- Insert in clip* -->
<g id="node14" class="node">
<title>Insert in clip*</title>
<ellipse fill="gray" stroke="black" cx="720.99" cy="-234" rx="46.53" ry="18"/>
<text text-anchor="middle" x="720.99" y="-231.8" font-family="Times,serif" font-size="9.00">Insert in clip*</text>
</g>
<!-- Insert in clip&#45;&gt;Insert in clip* -->
<g id="edge13" class="edge">
<title>Insert in clip&#45;&gt;Insert in clip*</title>
<path fill="none" stroke="black" d="M807.1,-287.88C790.98,-277.97 770.59,-265.46 753.71,-255.09"/>
<polygon fill="black" stroke="black" points="755.09,-251.83 744.74,-249.58 751.43,-257.8 755.09,-251.83"/>
</g>
<!-- Open Gripper* -->
<g id="node15" class="node">
<title>Open Gripper*</title>
<ellipse fill="gray" stroke="black" cx="834.99" cy="-234" rx="49.8" ry="18"/>
<text text-anchor="middle" x="834.99" y="-231.8" font-family="Times,serif" font-size="9.00">Open Gripper*</text>
</g>
<!-- Insert in clip&#45;&gt;Open Gripper* -->
<g id="edge14" class="edge">
<title>Insert in clip&#45;&gt;Open Gripper*</title>
<path fill="none" stroke="black" d="M834.99,-287.7C834.99,-279.98 834.99,-270.71 834.99,-262.11"/>
<polygon fill="black" stroke="black" points="838.49,-262.1 834.99,-252.1 831.49,-262.1 838.49,-262.1"/>
</g>
<!-- Grab Clip -->
<g id="node17" class="node">
<title>Grab Clip</title>
<polygon fill="orange" stroke="black" points="976.99,-252 902.99,-252 902.99,-216 976.99,-216 976.99,-252"/>
<text text-anchor="middle" x="939.99" y="-231.8" font-family="Times,serif" font-size="9.00">Ⓜ Grab Clip</text>
</g>
<!-- Close Clip&#45;&gt;Grab Clip -->
<g id="edge16" class="edge">
<title>Close Clip&#45;&gt;Grab Clip</title>
<path fill="none" stroke="black" d="M970.86,-287.7C966.14,-279.64 960.43,-269.89 955.21,-260.98"/>
<polygon fill="black" stroke="black" points="958.08,-258.96 950.01,-252.1 952.04,-262.5 958.08,-258.96"/>
</g>
<!-- Look* -->
<g id="node30" class="node">
<title>Look*</title>
<ellipse fill="gray" stroke="black" cx="1021.99" cy="-234" rx="27" ry="18"/>
<text text-anchor="middle" x="1021.99" y="-231.8" font-family="Times,serif" font-size="9.00">Look*</text>
</g>
<!-- Close Clip&#45;&gt;Look* -->
<g id="edge29" class="edge">
<title>Close Clip&#45;&gt;Look*</title>
<path fill="none" stroke="black" d="M991.13,-287.7C996.04,-279.32 1002.02,-269.1 1007.41,-259.9"/>
<polygon fill="black" stroke="black" points="1010.5,-261.54 1012.54,-251.14 1004.46,-258 1010.5,-261.54"/>
</g>
<!-- Open Gripper**** -->
<g id="node31" class="node">
<title>Open Gripper****</title>
<ellipse fill="gray" stroke="black" cx="1123.99" cy="-234" rx="57.32" ry="18"/>
<text text-anchor="middle" x="1123.99" y="-231.8" font-family="Times,serif" font-size="9.00">Open Gripper****</text>
</g>
<!-- Close Clip&#45;&gt;Open Gripper**** -->
<g id="edge30" class="edge">
<title>Close Clip&#45;&gt;Open Gripper****</title>
<path fill="none" stroke="black" d="M1015.97,-287.88C1036.86,-277.65 1063.43,-264.64 1084.99,-254.09"/>
<polygon fill="black" stroke="black" points="1086.76,-257.12 1094.2,-249.58 1083.68,-250.83 1086.76,-257.12"/>
</g>
<!-- Open if closed* -->
<g id="node18" class="node">
<title>Open if closed*</title>
<polygon fill="orange" stroke="black" points="614.49,-180 515.49,-180 515.49,-144 614.49,-144 614.49,-180"/>
<text text-anchor="middle" x="564.99" y="-159.8" font-family="Times,serif" font-size="9.00">Ⓜ Open if closed*</text>
</g>
<!-- Grab Clip&#45;&gt;Open if closed* -->
<g id="edge17" class="edge">
<title>Grab Clip&#45;&gt;Open if closed*</title>
<path fill="none" stroke="black" d="M902.8,-218.47C899.85,-217.56 896.88,-216.72 893.99,-216 779.59,-187.61 744.33,-203.91 624.67,-179.94"/>
<polygon fill="black" stroke="black" points="625.26,-176.49 614.76,-177.9 623.85,-183.34 625.26,-176.49"/>
</g>
<!-- Grab Clip* -->
<g id="node23" class="node">
<title>Grab Clip*</title>
<ellipse fill="gray" stroke="black" cx="670.99" cy="-162" rx="38.21" ry="18"/>
<text text-anchor="middle" x="670.99" y="-159.8" font-family="Times,serif" font-size="9.00">Grab Clip*</text>
</g>
<!-- Grab Clip&#45;&gt;Grab Clip* -->
<g id="edge22" class="edge">
<title>Grab Clip&#45;&gt;Grab Clip*</title>
<path fill="none" stroke="black" d="M902.74,-218.69C899.8,-217.73 896.86,-216.82 893.99,-216 817.21,-194.1 794.85,-201.64 717.99,-180 715.08,-179.18 712.09,-178.27 709.09,-177.3"/>
<polygon fill="black" stroke="black" points="710.2,-173.99 699.61,-174.1 707.96,-180.62 710.2,-173.99"/>
</g>
<!-- Close Gripper* -->
<g id="node24" class="node">
<title>Close Gripper*</title>
<ellipse fill="gray" stroke="black" cx="776.99" cy="-162" rx="49.8" ry="18"/>
<text text-anchor="middle" x="776.99" y="-159.8" font-family="Times,serif" font-size="9.00">Close Gripper*</text>
</g>
<!-- Grab Clip&#45;&gt;Close Gripper* -->
<g id="edge23" class="edge">
<title>Grab Clip&#45;&gt;Close Gripper*</title>
<path fill="none" stroke="black" d="M902.6,-216.94C876.98,-205.94 843.05,-191.37 816.91,-180.14"/>
<polygon fill="black" stroke="black" points="818.23,-176.9 807.66,-176.17 815.47,-183.33 818.23,-176.9"/>
</g>
<!-- Close Clip* -->
<g id="node25" class="node">
<title>Close Clip*</title>
<ellipse fill="gray" stroke="black" cx="883.99" cy="-162" rx="39.02" ry="18"/>
<text text-anchor="middle" x="883.99" y="-159.8" font-family="Times,serif" font-size="9.00">Close Clip*</text>
</g>
<!-- Grab Clip&#45;&gt;Close Clip* -->
<g id="edge24" class="edge">
<title>Grab Clip&#45;&gt;Close Clip*</title>
<path fill="none" stroke="black" d="M926.15,-215.7C919.24,-207.05 910.76,-196.46 903.22,-187.04"/>
<polygon fill="black" stroke="black" points="905.89,-184.77 896.91,-179.14 900.42,-189.14 905.89,-184.77"/>
</g>
<!-- Open Gripper*** -->
<g id="node26" class="node">
<title>Open Gripper***</title>
<ellipse fill="gray" stroke="black" cx="995.99" cy="-162" rx="54.7" ry="18"/>
<text text-anchor="middle" x="995.99" y="-159.8" font-family="Times,serif" font-size="9.00">Open Gripper***</text>
</g>
<!-- Grab Clip&#45;&gt;Open Gripper*** -->
<g id="edge25" class="edge">
<title>Grab Clip&#45;&gt;Open Gripper***</title>
<path fill="none" stroke="black" d="M953.83,-215.7C960.65,-207.18 968.98,-196.76 976.43,-187.45"/>
<polygon fill="black" stroke="black" points="979.18,-189.62 982.69,-179.62 973.71,-185.24 979.18,-189.62"/>
</g>
<!-- Lock Clip (up) -->
<g id="node27" class="node">
<title>Lock Clip (up)</title>
<ellipse fill="gray" stroke="black" cx="1116.99" cy="-162" rx="47.84" ry="18"/>
<text text-anchor="middle" x="1116.99" y="-159.8" font-family="Times,serif" font-size="9.00">Lock Clip (up)</text>
</g>
<!-- Grab Clip&#45;&gt;Lock Clip (up) -->
<g id="edge26" class="edge">
<title>Grab Clip&#45;&gt;Lock Clip (up)</title>
<path fill="none" stroke="black" d="M977.1,-218.33C1006,-206.89 1046.1,-191.04 1075.96,-179.23"/>
<polygon fill="black" stroke="black" points="1077.26,-182.48 1085.27,-175.55 1074.68,-175.97 1077.26,-182.48"/>
</g>
<!-- Close Gripper** -->
<g id="node28" class="node">
<title>Close Gripper**</title>
<ellipse fill="gray" stroke="black" cx="1234.99" cy="-162" rx="51.92" ry="18"/>
<text text-anchor="middle" x="1234.99" y="-159.8" font-family="Times,serif" font-size="9.00">Close Gripper**</text>
</g>
<!-- Grab Clip&#45;&gt;Close Gripper** -->
<g id="edge27" class="edge">
<title>Grab Clip&#45;&gt;Close Gripper**</title>
<path fill="none" stroke="black" d="M977.23,-218.65C980.18,-217.7 983.12,-216.8 985.99,-216 1067.95,-193.18 1091.17,-199.44 1173.99,-180 1178.15,-179.03 1182.44,-177.96 1186.74,-176.84"/>
<polygon fill="black" stroke="black" points="1187.96,-180.14 1196.72,-174.19 1186.16,-173.38 1187.96,-180.14"/>
</g>
<!-- Lock Clip (down) -->
<g id="node29" class="node">
<title>Lock Clip (down)</title>
<ellipse fill="gray" stroke="black" cx="1359.99" cy="-162" rx="54.7" ry="18"/>
<text text-anchor="middle" x="1359.99" y="-159.8" font-family="Times,serif" font-size="9.00">Lock Clip (down)</text>
</g>
<!-- Grab Clip&#45;&gt;Lock Clip (down) -->
<g id="edge28" class="edge">
<title>Grab Clip&#45;&gt;Lock Clip (down)</title>
<path fill="none" stroke="black" d="M977.17,-218.42C980.13,-217.51 983.09,-216.69 985.99,-216 1120.89,-183.73 1159.72,-205.87 1295.99,-180 1300.69,-179.11 1305.54,-178.06 1310.39,-176.93"/>
<polygon fill="black" stroke="black" points="1311.37,-180.29 1320.25,-174.5 1309.71,-173.49 1311.37,-180.29"/>
</g>
<!-- Get gripper* -->
<g id="node19" class="node">
<title>Get gripper*</title>
<ellipse fill="gray" stroke="black" cx="513.99" cy="-90" rx="43.76" ry="18"/>
<text text-anchor="middle" x="513.99" y="-87.8" font-family="Times,serif" font-size="9.00">Get gripper*</text>
</g>
<!-- Open if closed*&#45;&gt;Get gripper* -->
<g id="edge18" class="edge">
<title>Open if closed*&#45;&gt;Get gripper*</title>
<path fill="none" stroke="black" d="M552.39,-143.7C546.24,-135.27 538.74,-124.97 532.01,-115.73"/>
<polygon fill="black" stroke="black" points="534.82,-113.64 526.1,-107.62 529.16,-117.77 534.82,-113.64"/>
</g>
<!-- Closed* -->
<g id="node20" class="node">
<title>Closed*</title>
<polygon fill="cyan" stroke="black" points="655.98,-82.54 655.98,-97.46 632.56,-108 599.43,-108 576,-97.46 576,-82.54 599.43,-72 632.56,-72 655.98,-82.54"/>
<text text-anchor="middle" x="615.99" y="-87.8" font-family="Times,serif" font-size="9.00">Ⓜ Closed*</text>
</g>
<!-- Open if closed*&#45;&gt;Closed* -->
<g id="edge19" class="edge">
<title>Open if closed*&#45;&gt;Closed*</title>
<path fill="none" stroke="black" d="M577.6,-143.7C583.59,-135.47 590.87,-125.48 597.47,-116.42"/>
<polygon fill="black" stroke="black" points="600.47,-118.25 603.53,-108.1 594.81,-114.13 600.47,-118.25"/>
</g>
<!-- check open* -->
<g id="node21" class="node">
<title>check open*</title>
<ellipse fill="gray" stroke="black" cx="559.99" cy="-18" rx="42.95" ry="18"/>
<text text-anchor="middle" x="559.99" y="-15.8" font-family="Times,serif" font-size="9.00">check open*</text>
</g>
<!-- Closed*&#45;&gt;check open* -->
<g id="edge20" class="edge">
<title>Closed*&#45;&gt;check open*</title>
<path fill="none" stroke="black" d="M602.15,-71.7C595.34,-63.18 587,-52.76 579.55,-43.45"/>
<polygon fill="black" stroke="black" points="582.27,-41.24 573.29,-35.62 576.8,-45.62 582.27,-41.24"/>
</g>
<!-- Open Gripper** -->
<g id="node22" class="node">
<title>Open Gripper**</title>
<ellipse fill="gray" stroke="black" cx="672.99" cy="-18" rx="51.92" ry="18"/>
<text text-anchor="middle" x="672.99" y="-15.8" font-family="Times,serif" font-size="9.00">Open Gripper**</text>
</g>
<!-- Closed*&#45;&gt;Open Gripper** -->
<g id="edge21" class="edge">
<title>Closed*&#45;&gt;Open Gripper**</title>
<path fill="none" stroke="black" d="M630.08,-71.7C637.02,-63.18 645.5,-52.76 653.08,-43.45"/>
<polygon fill="black" stroke="black" points="655.86,-45.59 659.46,-35.62 650.43,-41.17 655.86,-45.59"/>
</g>
<!-- Up -->
<g id="node33" class="node">
<title>Up</title>
<ellipse fill="gray" stroke="black" cx="1225.99" cy="-234" rx="27" ry="18"/>
<text text-anchor="middle" x="1225.99" y="-231.8" font-family="Times,serif" font-size="9.00">Up</text>
</g>
<!-- Open Clip&#45;&gt;Up -->
<g id="edge32" class="edge">
<title>Open Clip&#45;&gt;Up</title>
<path fill="none" stroke="black" d="M1448.45,-298.6C1403.39,-290.36 1325.92,-274.38 1261.99,-252 1260.08,-251.33 1258.14,-250.59 1256.2,-249.81"/>
<polygon fill="black" stroke="black" points="1257.19,-246.43 1246.62,-245.64 1254.39,-252.84 1257.19,-246.43"/>
</g>
<!-- Open Gripper***** -->
<g id="node34" class="node">
<title>Open Gripper*****</title>
<ellipse fill="gray" stroke="black" cx="1330.99" cy="-234" rx="60.09" ry="18"/>
<text text-anchor="middle" x="1330.99" y="-231.8" font-family="Times,serif" font-size="9.00">Open Gripper*****</text>
</g>
<!-- Open Clip&#45;&gt;Open Gripper***** -->
<g id="edge33" class="edge">
<title>Open Clip&#45;&gt;Open Gripper*****</title>
<path fill="none" stroke="black" d="M1448.47,-288.05C1425.3,-277.59 1395.55,-264.16 1371.79,-253.43"/>
<polygon fill="black" stroke="black" points="1373.23,-250.24 1362.68,-249.31 1370.35,-256.62 1373.23,-250.24"/>
</g>
<!-- Down -->
<g id="node35" class="node">
<title>Down</title>
<ellipse fill="gray" stroke="black" cx="1435.99" cy="-234" rx="27" ry="18"/>
<text text-anchor="middle" x="1435.99" y="-231.8" font-family="Times,serif" font-size="9.00">Down</text>
</g>
<!-- Open Clip&#45;&gt;Down -->
<g id="edge34" class="edge">
<title>Open Clip&#45;&gt;Down</title>
<path fill="none" stroke="black" d="M1473.63,-287.7C1467.43,-279.02 1459.83,-268.37 1453.08,-258.92"/>
<polygon fill="black" stroke="black" points="1455.85,-256.77 1447.19,-250.67 1450.15,-260.84 1455.85,-256.77"/>
</g>
<!-- Close Gripper*** -->
<g id="node36" class="node">
<title>Close Gripper***</title>
<ellipse fill="gray" stroke="black" cx="1535.99" cy="-234" rx="54.7" ry="18"/>
<text text-anchor="middle" x="1535.99" y="-231.8" font-family="Times,serif" font-size="9.00">Close Gripper***</text>
</g>
<!-- Open Clip&#45;&gt;Close Gripper*** -->
<g id="edge35" class="edge">
<title>Open Clip&#45;&gt;Close Gripper***</title>
<path fill="none" stroke="black" d="M1498.35,-287.7C1504.31,-279.35 1511.57,-269.18 1518.12,-260.02"/>
<polygon fill="black" stroke="black" points="1521.15,-261.79 1524.12,-251.62 1515.46,-257.73 1521.15,-261.79"/>
</g>
<!-- Lift -->
<g id="node37" class="node">
<title>Lift</title>
<ellipse fill="gray" stroke="black" cx="1635.99" cy="-234" rx="27" ry="18"/>
<text text-anchor="middle" x="1635.99" y="-231.8" font-family="Times,serif" font-size="9.00">Lift</text>
</g>
<!-- Open Clip&#45;&gt;Lift -->
<g id="edge36" class="edge">
<title>Open Clip&#45;&gt;Lift</title>
<path fill="none" stroke="black" d="M1522.73,-287.99C1545.08,-277.62 1574.2,-264.09 1599.99,-252 1601.78,-251.16 1603.61,-250.3 1605.46,-249.43"/>
<polygon fill="black" stroke="black" points="1607.13,-252.52 1614.68,-245.09 1604.14,-246.18 1607.13,-252.52"/>
</g>
<!-- Open Gripper****** -->
<g id="node38" class="node">
<title>Open Gripper******</title>
<ellipse fill="gray" stroke="black" cx="1742.99" cy="-234" rx="62.21" ry="18"/>
<text text-anchor="middle" x="1742.99" y="-231.8" font-family="Times,serif" font-size="9.00">Open Gripper******</text>
</g>
<!-- Open Clip&#45;&gt;Open Gripper****** -->
<g id="edge37" class="edge">
<title>Open Clip&#45;&gt;Open Gripper******</title>
<path fill="none" stroke="black" d="M1523.64,-294.75C1567.33,-282.84 1639.73,-263.13 1689.31,-249.62"/>
<polygon fill="black" stroke="black" points="1690.49,-252.93 1699.22,-246.92 1688.65,-246.17 1690.49,-252.93"/>
</g>
<!-- Grab Clip** -->
<g id="node39" class="node">
<title>Grab Clip**</title>
<polygon fill="orange" stroke="black" points="1906.49,-252 1823.49,-252 1823.49,-216 1906.49,-216 1906.49,-252"/>
<text text-anchor="middle" x="1864.99" y="-231.8" font-family="Times,serif" font-size="9.00">Ⓜ Grab Clip**</text>
</g>
<!-- Open Clip&#45;&gt;Grab Clip** -->
<g id="edge38" class="edge">
<title>Open Clip&#45;&gt;Grab Clip**</title>
<path fill="none" stroke="black" d="M1523.77,-300.91C1583.42,-294.01 1703.08,-278.42 1813.44,-251.9"/>
<polygon fill="black" stroke="black" points="1814.52,-255.24 1823.4,-249.47 1812.86,-248.44 1814.52,-255.24"/>
</g>
<!-- Grab Cable -->
<g id="node40" class="node">
<title>Grab Cable</title>
<ellipse fill="gray" stroke="black" cx="1693.99" cy="-162" rx="39.67" ry="18"/>
<text text-anchor="middle" x="1693.99" y="-159.8" font-family="Times,serif" font-size="9.00">Grab Cable</text>
</g>
<!-- Grab Clip**&#45;&gt;Grab Cable -->
<g id="edge39" class="edge">
<title>Grab Clip**&#45;&gt;Grab Cable</title>
<path fill="none" stroke="black" d="M1823.16,-215.88C1795.33,-204.48 1759.07,-189.64 1732.05,-178.58"/>
<polygon fill="black" stroke="black" points="1733.13,-175.24 1722.55,-174.69 1730.48,-181.72 1733.13,-175.24"/>
</g>
<!-- Close Gripper**** -->
<g id="node41" class="node">
<title>Close Gripper****</title>
<ellipse fill="gray" stroke="black" cx="1808.99" cy="-162" rx="57.32" ry="18"/>
<text text-anchor="middle" x="1808.99" y="-159.8" font-family="Times,serif" font-size="9.00">Close Gripper****</text>
</g>
<!-- Grab Clip**&#45;&gt;Close Gripper**** -->
<g id="edge40" class="edge">
<title>Grab Clip**&#45;&gt;Close Gripper****</title>
<path fill="none" stroke="black" d="M1851.15,-215.7C1844.34,-207.18 1836,-196.76 1828.55,-187.45"/>
<polygon fill="black" stroke="black" points="1831.27,-185.24 1822.29,-179.62 1825.8,-189.62 1831.27,-185.24"/>
</g>
<!-- Open clip -->
<g id="node42" class="node">
<title>Open clip</title>
<ellipse fill="gray" stroke="black" cx="1919.99" cy="-162" rx="35.59" ry="18"/>
<text text-anchor="middle" x="1919.99" y="-159.8" font-family="Times,serif" font-size="9.00">Open clip</text>
</g>
<!-- Grab Clip**&#45;&gt;Open clip -->
<g id="edge41" class="edge">
<title>Grab Clip**&#45;&gt;Open clip</title>
<path fill="none" stroke="black" d="M1878.59,-215.7C1885.38,-207.05 1893.7,-196.46 1901.1,-187.04"/>
<polygon fill="black" stroke="black" points="1903.88,-189.17 1907.31,-179.14 1898.38,-184.85 1903.88,-189.17"/>
</g>
<!-- Open Gripper******* -->
<g id="node43" class="node">
<title>Open Gripper*******</title>
<ellipse fill="gray" stroke="black" cx="2038.99" cy="-162" rx="65.48" ry="18"/>
<text text-anchor="middle" x="2038.99" y="-159.8" font-family="Times,serif" font-size="9.00">Open Gripper*******</text>
</g>
<!-- Grab Clip**&#45;&gt;Open Gripper******* -->
<g id="edge42" class="edge">
<title>Grab Clip**&#45;&gt;Open Gripper*******</title>
<path fill="none" stroke="black" d="M1906.67,-216.23C1932.99,-205.64 1967,-191.96 1993.95,-181.12"/>
<polygon fill="black" stroke="black" points="1995.56,-184.25 2003.53,-177.27 1992.95,-177.75 1995.56,-184.25"/>
</g>
</g>
</svg>
