<?xml version="1.0" encoding="UTF-8" standalone="no"?>
<!DOCTYPE svg PUBLIC "-//W3C//DTD SVG 1.1//EN"
 "http://www.w3.org/Graphics/SVG/1.1/DTD/svg11.dtd">
<!-- Generated by graphviz version 2.43.0 (0)
 -->
<!-- Title: pastafarianism Pages: 1 -->
<svg width="812pt" height="260pt"
 viewBox="0.00 0.00 811.96 260.00" xmlns="http://www.w3.org/2000/svg" xmlns:xlink="http://www.w3.org/1999/xlink">
<g id="graph0" class="graph" transform="scale(1 1) rotate(0) translate(4 256)">
<title>pastafarianism</title>
<polygon fill="white" stroke="transparent" points="-4,4 -4,-256 807.96,-256 807.96,4 -4,4"/>
<!-- inverse -->
<g id="node1" class="node">
<title>inverse</title>
<polygon fill="orange" stroke="black" points="334,-252 272,-252 272,-216 334,-216 334,-252"/>
<text text-anchor="middle" x="303" y="-231.8" font-family="Times,serif" font-size="9.00">Ⓜ inverse</text>
</g>
<!-- Open Clip -->
<g id="node2" class="node">
<title>Open Clip</title>
<polygon fill="orange" stroke="black" points="340.5,-180 265.5,-180 265.5,-144 340.5,-144 340.5,-180"/>
<text text-anchor="middle" x="303" y="-159.8" font-family="Times,serif" font-size="9.00">Ⓜ Open Clip</text>
</g>
<!-- inverse&#45;&gt;Open Clip -->
<g id="edge1" class="edge">
<title>inverse&#45;&gt;Open Clip</title>
<path fill="none" stroke="black" d="M303,-215.7C303,-207.98 303,-198.71 303,-190.11"/>
<polygon fill="black" stroke="black" points="306.5,-190.1 303,-180.1 299.5,-190.1 306.5,-190.1"/>
</g>
<!-- Up -->
<g id="node3" class="node">
<title>Up</title>
<ellipse fill="gray" stroke="black" cx="27" cy="-90" rx="27" ry="18"/>
<text text-anchor="middle" x="27" y="-87.8" font-family="Times,serif" font-size="9.00">Up</text>
</g>
<!-- Open Clip&#45;&gt;Up -->
<g id="edge2" class="edge">
<title>Open Clip&#45;&gt;Up</title>
<path fill="none" stroke="black" d="M265.29,-155.36C217.41,-147.59 132.65,-131.8 63,-108 61.09,-107.35 59.14,-106.62 57.19,-105.85"/>
<polygon fill="black" stroke="black" points="58.18,-102.46 47.61,-101.7 55.4,-108.88 58.18,-102.46"/>
</g>
<!-- Open Gripper -->
<g id="node4" class="node">
<title>Open Gripper</title>
<ellipse fill="gray" stroke="black" cx="119" cy="-90" rx="46.53" ry="18"/>
<text text-anchor="middle" x="119" y="-87.8" font-family="Times,serif" font-size="9.00">Open Gripper</text>
</g>
<!-- Open Clip&#45;&gt;Open Gripper -->
<g id="edge3" class="edge">
<title>Open Clip&#45;&gt;Open Gripper</title>
<path fill="none" stroke="black" d="M265.32,-146.67C234.83,-135.07 191.94,-118.75 160.47,-106.78"/>
<polygon fill="black" stroke="black" points="161.69,-103.5 151.1,-103.21 159.2,-110.04 161.69,-103.5"/>
</g>
<!-- Down -->
<g id="node5" class="node">
<title>Down</title>
<ellipse fill="gray" stroke="black" cx="211" cy="-90" rx="27" ry="18"/>
<text text-anchor="middle" x="211" y="-87.8" font-family="Times,serif" font-size="9.00">Down</text>
</g>
<!-- Open Clip&#45;&gt;Down -->
<g id="edge4" class="edge">
<title>Open Clip&#45;&gt;Down</title>
<path fill="none" stroke="black" d="M280.26,-143.7C266.95,-133.57 250.12,-120.76 236.38,-110.31"/>
<polygon fill="black" stroke="black" points="238.36,-107.42 228.29,-104.15 234.12,-112.99 238.36,-107.42"/>
</g>
<!-- Close Gripper -->
<g id="node6" class="node">
<title>Close Gripper</title>
<ellipse fill="gray" stroke="black" cx="303" cy="-90" rx="46.53" ry="18"/>
<text text-anchor="middle" x="303" y="-87.8" font-family="Times,serif" font-size="9.00">Close Gripper</text>
</g>
<!-- Open Clip&#45;&gt;Close Gripper -->
<g id="edge5" class="edge">
<title>Open Clip&#45;&gt;Close Gripper</title>
<path fill="none" stroke="black" d="M303,-143.7C303,-135.98 303,-126.71 303,-118.11"/>
<polygon fill="black" stroke="black" points="306.5,-118.1 303,-108.1 299.5,-118.1 306.5,-118.1"/>
</g>
<!-- Lift -->
<g id="node7" class="node">
<title>Lift</title>
<ellipse fill="gray" stroke="black" cx="395" cy="-90" rx="27" ry="18"/>
<text text-anchor="middle" x="395" y="-87.8" font-family="Times,serif" font-size="9.00">Lift</text>
</g>
<!-- Open Clip&#45;&gt;Lift -->
<g id="edge6" class="edge">
<title>Open Clip&#45;&gt;Lift</title>
<path fill="none" stroke="black" d="M325.74,-143.7C339.05,-133.57 355.88,-120.76 369.62,-110.31"/>
<polygon fill="black" stroke="black" points="371.88,-112.99 377.71,-104.15 367.64,-107.42 371.88,-112.99"/>
</g>
<!-- Open Gripper* -->
<g id="node8" class="node">
<title>Open Gripper*</title>
<ellipse fill="gray" stroke="black" cx="490" cy="-90" rx="49.8" ry="18"/>
<text text-anchor="middle" x="490" y="-87.8" font-family="Times,serif" font-size="9.00">Open Gripper*</text>
</g>
<!-- Open Clip&#45;&gt;Open Gripper* -->
<g id="edge7" class="edge">
<title>Open Clip&#45;&gt;Open Gripper*</title>
<path fill="none" stroke="black" d="M340.84,-146.83C371.6,-135.32 414.99,-119.08 447.04,-107.08"/>
<polygon fill="black" stroke="black" points="448.46,-110.29 456.6,-103.5 446.01,-103.73 448.46,-110.29"/>
</g>
<!-- Grab Clip -->
<g id="node9" class="node">
<title>Grab Clip</title>
<polygon fill="orange" stroke="black" points="632,-108 558,-108 558,-72 632,-72 632,-108"/>
<text text-anchor="middle" x="595" y="-87.8" font-family="Times,serif" font-size="9.00">Ⓜ Grab Clip</text>
</g>
<!-- Open Clip&#45;&gt;Grab Clip -->
<g id="edge8" class="edge">
<title>Open Clip&#45;&gt;Grab Clip</title>
<path fill="none" stroke="black" d="M340.5,-154.63C387.1,-146.35 469.14,-130.54 547.91,-108.1"/>
<polygon fill="black" stroke="black" points="549.36,-111.33 557.99,-105.19 547.42,-104.6 549.36,-111.33"/>
</g>
<!-- Grab Cable -->
<g id="node10" class="node">
<title>Grab Cable</title>
<ellipse fill="gray" stroke="black" cx="436" cy="-18" rx="39.67" ry="18"/>
<text text-anchor="middle" x="436" y="-15.8" font-family="Times,serif" font-size="9.00">Grab Cable</text>
</g>
<!-- Grab Clip&#45;&gt;Grab Cable -->
<g id="edge9" class="edge">
<title>Grab Clip&#45;&gt;Grab Cable</title>
<path fill="none" stroke="black" d="M557.72,-72.59C532.16,-61.34 498.41,-46.48 472.93,-35.26"/>
<polygon fill="black" stroke="black" points="474.16,-31.98 463.6,-31.15 471.34,-38.38 474.16,-31.98"/>
</g>
<!-- Close Gripper* -->
<g id="node11" class="node">
<title>Close Gripper*</title>
<ellipse fill="gray" stroke="black" cx="543" cy="-18" rx="49.8" ry="18"/>
<text text-anchor="middle" x="543" y="-15.8" font-family="Times,serif" font-size="9.00">Close Gripper*</text>
</g>
<!-- Grab Clip&#45;&gt;Close Gripper* -->
<g id="edge10" class="edge">
<title>Grab Clip&#45;&gt;Close Gripper*</title>
<path fill="none" stroke="black" d="M582.15,-71.7C575.88,-63.27 568.24,-52.97 561.37,-43.73"/>
<polygon fill="black" stroke="black" points="564.12,-41.56 555.35,-35.62 558.5,-45.74 564.12,-41.56"/>
</g>
<!-- Open clip -->
<g id="node12" class="node">
<title>Open clip</title>
<ellipse fill="gray" stroke="black" cx="646" cy="-18" rx="35.59" ry="18"/>
<text text-anchor="middle" x="646" y="-15.8" font-family="Times,serif" font-size="9.00">Open clip</text>
</g>
<!-- Grab Clip&#45;&gt;Open clip -->
<g id="edge11" class="edge">
<title>Grab Clip&#45;&gt;Open clip</title>
<path fill="none" stroke="black" d="M607.61,-71.7C613.84,-63.14 621.47,-52.67 628.28,-43.33"/>
<polygon fill="black" stroke="black" points="631.18,-45.29 634.24,-35.14 625.52,-41.17 631.18,-45.29"/>
</g>
<!-- Open Gripper** -->
<g id="node13" class="node">
<title>Open Gripper**</title>
<ellipse fill="gray" stroke="black" cx="752" cy="-18" rx="51.92" ry="18"/>
<text text-anchor="middle" x="752" y="-15.8" font-family="Times,serif" font-size="9.00">Open Gripper**</text>
</g>
<!-- Grab Clip&#45;&gt;Open Gripper** -->
<g id="edge12" class="edge">
<title>Grab Clip&#45;&gt;Open Gripper**</title>
<path fill="none" stroke="black" d="M632.21,-72.41C656.22,-61.7 687.45,-47.78 711.99,-36.84"/>
<polygon fill="black" stroke="black" points="713.68,-39.92 721.39,-32.65 710.83,-33.53 713.68,-39.92"/>
</g>
</g>
</svg>
