<?xml version="1.0" encoding="UTF-8" standalone="no"?>
<!DOCTYPE svg PUBLIC "-//W3C//DTD SVG 1.1//EN"
 "http://www.w3.org/Graphics/SVG/1.1/DTD/svg11.dtd">
<!-- Generated by graphviz version 2.43.0 (0)
 -->
<!-- Title: pastafarianism Pages: 1 -->
<svg width="2421pt" height="332pt"
 viewBox="0.00 0.00 2421.26 332.00" xmlns="http://www.w3.org/2000/svg" xmlns:xlink="http://www.w3.org/1999/xlink">
<g id="graph0" class="graph" transform="scale(1 1) rotate(0) translate(4 328)">
<title>pastafarianism</title>
<polygon fill="white" stroke="transparent" points="-4,4 -4,-328 2417.26,-328 2417.26,4 -4,4"/>
<!-- path -->
<g id="node1" class="node">
<title>path</title>
<polygon fill="orange" stroke="black" points="1796.99,-324 1742.99,-324 1742.99,-288 1796.99,-288 1796.99,-324"/>
<text text-anchor="middle" x="1769.99" y="-303.8" font-family="Times,serif" font-size="9.00">Ⓜ path</text>
</g>
<!-- Pick up branch -->
<g id="node2" class="node">
<title>Pick up branch</title>
<polygon fill="orange" stroke="black" points="417.49,-252 318.49,-252 318.49,-216 417.49,-216 417.49,-252"/>
<text text-anchor="middle" x="367.99" y="-231.8" font-family="Times,serif" font-size="9.00">Ⓜ Pick up branch</text>
</g>
<!-- path&#45;&gt;Pick up branch -->
<g id="edge1" class="edge">
<title>path&#45;&gt;Pick up branch</title>
<path fill="none" stroke="black" d="M1742.93,-303.65C1574.54,-295.24 669.65,-250.06 427.58,-237.98"/>
<polygon fill="black" stroke="black" points="427.72,-234.48 417.56,-237.47 427.38,-241.47 427.72,-234.48"/>
</g>
<!-- Insert in tube -->
<g id="node13" class="node">
<title>Insert in tube</title>
<polygon fill="orange" stroke="black" points="1454.99,-252 1362.99,-252 1362.99,-216 1454.99,-216 1454.99,-252"/>
<text text-anchor="middle" x="1408.99" y="-231.8" font-family="Times,serif" font-size="9.00">Ⓜ Insert in tube</text>
</g>
<!-- path&#45;&gt;Insert in tube -->
<g id="edge12" class="edge">
<title>path&#45;&gt;Insert in tube</title>
<path fill="none" stroke="black" d="M1742.86,-299.74C1684.09,-288.34 1544,-261.18 1465.23,-245.91"/>
<polygon fill="black" stroke="black" points="1465.49,-242.39 1455.01,-243.92 1464.16,-249.26 1465.49,-242.39"/>
</g>
<!-- Alignment with the second tube -->
<g id="node27" class="node">
<title>Alignment with the second tube</title>
<polygon fill="orange" stroke="black" points="1985.49,-252 1808.49,-252 1808.49,-216 1985.49,-216 1985.49,-252"/>
<text text-anchor="middle" x="1896.99" y="-231.8" font-family="Times,serif" font-size="9.00">Ⓜ Alignment with the second tube</text>
</g>
<!-- path&#45;&gt;Alignment with the second tube -->
<g id="edge26" class="edge">
<title>path&#45;&gt;Alignment with the second tube</title>
<path fill="none" stroke="black" d="M1797.24,-289.98C1814.6,-280.41 1837.41,-267.84 1856.83,-257.14"/>
<polygon fill="black" stroke="black" points="1858.7,-260.1 1865.77,-252.21 1855.32,-253.97 1858.7,-260.1"/>
</g>
<!-- Insert in tube** -->
<g id="node29" class="node">
<title>Insert in tube**</title>
<polygon fill="orange" stroke="black" points="2285.49,-252 2184.49,-252 2184.49,-216 2285.49,-216 2285.49,-252"/>
<text text-anchor="middle" x="2234.99" y="-231.8" font-family="Times,serif" font-size="9.00">Ⓜ Insert in tube**</text>
</g>
<!-- path&#45;&gt;Insert in tube** -->
<g id="edge28" class="edge">
<title>path&#45;&gt;Insert in tube**</title>
<path fill="none" stroke="black" d="M1797,-300.93C1869.9,-289.96 2072.02,-259.53 2174.2,-244.15"/>
<polygon fill="black" stroke="black" points="2174.99,-247.57 2184.36,-242.62 2173.95,-240.65 2174.99,-247.57"/>
</g>
<!-- Open if closed -->
<g id="node3" class="node">
<title>Open if closed</title>
<polygon fill="orange" stroke="black" points="136.49,-180 41.49,-180 41.49,-144 136.49,-144 136.49,-180"/>
<text text-anchor="middle" x="88.99" y="-159.8" font-family="Times,serif" font-size="9.00">Ⓜ Open if closed</text>
</g>
<!-- Pick up branch&#45;&gt;Open if closed -->
<g id="edge2" class="edge">
<title>Pick up branch&#45;&gt;Open if closed</title>
<path fill="none" stroke="black" d="M318.42,-221.99C275.5,-212.28 211.55,-197.36 146.54,-180.07"/>
<polygon fill="black" stroke="black" points="147.09,-176.59 136.52,-177.39 145.28,-183.36 147.09,-176.59"/>
</g>
<!-- Look -->
<g id="node8" class="node">
<title>Look</title>
<ellipse fill="gray" stroke="black" cx="181.99" cy="-162" rx="27" ry="18"/>
<text text-anchor="middle" x="181.99" y="-159.8" font-family="Times,serif" font-size="9.00">Look</text>
</g>
<!-- Pick up branch&#45;&gt;Look -->
<g id="edge7" class="edge">
<title>Pick up branch&#45;&gt;Look</title>
<path fill="none" stroke="black" d="M318.2,-216.82C288.77,-206.91 250.94,-193.56 217.99,-180 216.17,-179.25 214.31,-178.46 212.44,-177.64"/>
<polygon fill="black" stroke="black" points="213.71,-174.37 203.15,-173.43 210.82,-180.75 213.71,-174.37"/>
</g>
<!-- Get cable -->
<g id="node9" class="node">
<title>Get cable</title>
<ellipse fill="gray" stroke="black" cx="261.99" cy="-162" rx="35.44" ry="18"/>
<text text-anchor="middle" x="261.99" y="-159.8" font-family="Times,serif" font-size="9.00">Get cable</text>
</g>
<!-- Pick up branch&#45;&gt;Get cable -->
<g id="edge8" class="edge">
<title>Pick up branch&#45;&gt;Get cable</title>
<path fill="none" stroke="black" d="M342.06,-215.88C326.65,-205.7 307.07,-192.77 291.12,-182.24"/>
<polygon fill="black" stroke="black" points="292.96,-179.26 282.69,-176.67 289.11,-185.1 292.96,-179.26"/>
</g>
<!-- Create pick goal -->
<g id="node10" class="node">
<title>Create pick goal</title>
<ellipse fill="gray" stroke="black" cx="367.99" cy="-162" rx="53.23" ry="18"/>
<text text-anchor="middle" x="367.99" y="-159.8" font-family="Times,serif" font-size="9.00">Create pick goal</text>
</g>
<!-- Pick up branch&#45;&gt;Create pick goal -->
<g id="edge9" class="edge">
<title>Pick up branch&#45;&gt;Create pick goal</title>
<path fill="none" stroke="black" d="M367.99,-215.7C367.99,-207.98 367.99,-198.71 367.99,-190.11"/>
<polygon fill="black" stroke="black" points="371.49,-190.1 367.99,-180.1 364.49,-190.1 371.49,-190.1"/>
</g>
<!-- Approach Cable -->
<g id="node11" class="node">
<title>Approach Cable</title>
<ellipse fill="gray" stroke="black" cx="491.99" cy="-162" rx="52.58" ry="18"/>
<text text-anchor="middle" x="491.99" y="-159.8" font-family="Times,serif" font-size="9.00">Approach Cable</text>
</g>
<!-- Pick up branch&#45;&gt;Approach Cable -->
<g id="edge10" class="edge">
<title>Pick up branch&#45;&gt;Approach Cable</title>
<path fill="none" stroke="black" d="M398.33,-215.88C416.07,-205.86 438.55,-193.17 457.03,-182.73"/>
<polygon fill="black" stroke="black" points="458.76,-185.78 465.75,-177.81 455.32,-179.68 458.76,-185.78"/>
</g>
<!-- Close Gripper -->
<g id="node12" class="node">
<title>Close Gripper</title>
<ellipse fill="gray" stroke="black" cx="608.99" cy="-162" rx="46.53" ry="18"/>
<text text-anchor="middle" x="608.99" y="-159.8" font-family="Times,serif" font-size="9.00">Close Gripper</text>
</g>
<!-- Pick up branch&#45;&gt;Close Gripper -->
<g id="edge11" class="edge">
<title>Pick up branch&#45;&gt;Close Gripper</title>
<path fill="none" stroke="black" d="M417.81,-219.13C455.32,-208.6 507.96,-193.67 553.99,-180 557.3,-179.02 560.72,-177.99 564.16,-176.95"/>
<polygon fill="black" stroke="black" points="565.28,-180.27 573.82,-174 563.23,-173.57 565.28,-180.27"/>
</g>
<!-- Get gripper -->
<g id="node4" class="node">
<title>Get gripper</title>
<ellipse fill="gray" stroke="black" cx="40.99" cy="-90" rx="40.98" ry="18"/>
<text text-anchor="middle" x="40.99" y="-87.8" font-family="Times,serif" font-size="9.00">Get gripper</text>
</g>
<!-- Open if closed&#45;&gt;Get gripper -->
<g id="edge3" class="edge">
<title>Open if closed&#45;&gt;Get gripper</title>
<path fill="none" stroke="black" d="M77.13,-143.7C71.4,-135.35 64.43,-125.18 58.15,-116.02"/>
<polygon fill="black" stroke="black" points="60.93,-113.89 52.39,-107.62 55.16,-117.85 60.93,-113.89"/>
</g>
<!-- Closed -->
<g id="node5" class="node">
<title>Closed</title>
<polygon fill="cyan" stroke="black" points="173.73,-82.54 173.73,-97.46 152.21,-108 121.77,-108 100.25,-97.46 100.25,-82.54 121.77,-72 152.21,-72 173.73,-82.54"/>
<text text-anchor="middle" x="136.99" y="-87.8" font-family="Times,serif" font-size="9.00">Ⓜ Closed</text>
</g>
<!-- Open if closed&#45;&gt;Closed -->
<g id="edge4" class="edge">
<title>Open if closed&#45;&gt;Closed</title>
<path fill="none" stroke="black" d="M100.86,-143.7C106.5,-135.47 113.35,-125.48 119.56,-116.42"/>
<polygon fill="black" stroke="black" points="122.49,-118.33 125.26,-108.1 116.72,-114.37 122.49,-118.33"/>
</g>
<!-- check open -->
<g id="node6" class="node">
<title>check open</title>
<ellipse fill="gray" stroke="black" cx="84.99" cy="-18" rx="39.67" ry="18"/>
<text text-anchor="middle" x="84.99" y="-15.8" font-family="Times,serif" font-size="9.00">check open</text>
</g>
<!-- Closed&#45;&gt;check open -->
<g id="edge5" class="edge">
<title>Closed&#45;&gt;check open</title>
<path fill="none" stroke="black" d="M124.14,-71.7C117.87,-63.27 110.23,-52.97 103.36,-43.73"/>
<polygon fill="black" stroke="black" points="106.11,-41.56 97.34,-35.62 100.49,-45.74 106.11,-41.56"/>
</g>
<!-- Open Gripper -->
<g id="node7" class="node">
<title>Open Gripper</title>
<ellipse fill="gray" stroke="black" cx="189.99" cy="-18" rx="46.53" ry="18"/>
<text text-anchor="middle" x="189.99" y="-15.8" font-family="Times,serif" font-size="9.00">Open Gripper</text>
</g>
<!-- Closed&#45;&gt;Open Gripper -->
<g id="edge6" class="edge">
<title>Closed&#45;&gt;Open Gripper</title>
<path fill="none" stroke="black" d="M150.09,-71.7C156.48,-63.27 164.27,-52.97 171.27,-43.73"/>
<polygon fill="black" stroke="black" points="174.16,-45.71 177.41,-35.62 168.58,-41.48 174.16,-45.71"/>
</g>
<!-- Approach tube -->
<g id="node14" class="node">
<title>Approach tube</title>
<ellipse fill="gray" stroke="black" cx="722.99" cy="-162" rx="49.8" ry="18"/>
<text text-anchor="middle" x="722.99" y="-159.8" font-family="Times,serif" font-size="9.00">Approach tube</text>
</g>
<!-- Insert in tube&#45;&gt;Approach tube -->
<g id="edge13" class="edge">
<title>Insert in tube&#45;&gt;Approach tube</title>
<path fill="none" stroke="black" d="M1362.95,-232.19C1258.68,-229.69 996.85,-219.64 781.99,-180 777.63,-179.2 773.12,-178.2 768.64,-177.1"/>
<polygon fill="black" stroke="black" points="769.48,-173.71 758.92,-174.56 767.71,-180.48 769.48,-173.71"/>
</g>
<!-- Insert in tube* -->
<g id="node15" class="node">
<title>Insert in tube*</title>
<ellipse fill="gray" stroke="black" cx="839.99" cy="-162" rx="49.15" ry="18"/>
<text text-anchor="middle" x="839.99" y="-159.8" font-family="Times,serif" font-size="9.00">Insert in tube*</text>
</g>
<!-- Insert in tube&#45;&gt;Insert in tube* -->
<g id="edge14" class="edge">
<title>Insert in tube&#45;&gt;Insert in tube*</title>
<path fill="none" stroke="black" d="M1362.77,-231.02C1272.62,-226.55 1067.33,-213.31 897.99,-180 893.88,-179.19 889.64,-178.22 885.41,-177.16"/>
<polygon fill="black" stroke="black" points="886.19,-173.75 875.63,-174.55 884.39,-180.51 886.19,-173.75"/>
</g>
<!-- Open Gripper* -->
<g id="node16" class="node">
<title>Open Gripper*</title>
<ellipse fill="gray" stroke="black" cx="956.99" cy="-162" rx="49.8" ry="18"/>
<text text-anchor="middle" x="956.99" y="-159.8" font-family="Times,serif" font-size="9.00">Open Gripper*</text>
</g>
<!-- Insert in tube&#45;&gt;Open Gripper* -->
<g id="edge15" class="edge">
<title>Insert in tube&#45;&gt;Open Gripper*</title>
<path fill="none" stroke="black" d="M1362.8,-229.07C1288.81,-222.27 1139.38,-206.44 1014.99,-180 1011.06,-179.16 1007.01,-178.2 1002.96,-177.16"/>
<polygon fill="black" stroke="black" points="1003.54,-173.69 992.98,-174.46 1001.72,-180.45 1003.54,-173.69"/>
</g>
<!-- Step back -->
<g id="node17" class="node">
<title>Step back</title>
<ellipse fill="gray" stroke="black" cx="1059.99" cy="-162" rx="35.59" ry="18"/>
<text text-anchor="middle" x="1059.99" y="-159.8" font-family="Times,serif" font-size="9.00">Step back</text>
</g>
<!-- Insert in tube&#45;&gt;Step back -->
<g id="edge16" class="edge">
<title>Insert in tube&#45;&gt;Step back</title>
<path fill="none" stroke="black" d="M1362.9,-227.86C1302.63,-220.49 1194.11,-204.98 1103.99,-180 1101.42,-179.29 1098.78,-178.48 1096.15,-177.61"/>
<polygon fill="black" stroke="black" points="1097.3,-174.31 1086.7,-174.28 1094.97,-180.91 1097.3,-174.31"/>
</g>
<!-- Close Gripper* -->
<g id="node18" class="node">
<title>Close Gripper*</title>
<ellipse fill="gray" stroke="black" cx="1162.99" cy="-162" rx="49.8" ry="18"/>
<text text-anchor="middle" x="1162.99" y="-159.8" font-family="Times,serif" font-size="9.00">Close Gripper*</text>
</g>
<!-- Insert in tube&#45;&gt;Close Gripper* -->
<g id="edge17" class="edge">
<title>Insert in tube&#45;&gt;Close Gripper*</title>
<path fill="none" stroke="black" d="M1362.87,-219.99C1325.01,-209.29 1270.01,-193.72 1221.99,-180 1218.24,-178.93 1214.35,-177.81 1210.44,-176.69"/>
<polygon fill="black" stroke="black" points="1211.33,-173.31 1200.75,-173.91 1209.4,-180.03 1211.33,-173.31"/>
</g>
<!-- Push -->
<g id="node19" class="node">
<title>Push</title>
<ellipse fill="gray" stroke="black" cx="1257.99" cy="-162" rx="27" ry="18"/>
<text text-anchor="middle" x="1257.99" y="-159.8" font-family="Times,serif" font-size="9.00">Push</text>
</g>
<!-- Insert in tube&#45;&gt;Push -->
<g id="edge18" class="edge">
<title>Insert in tube&#45;&gt;Push</title>
<path fill="none" stroke="black" d="M1371.66,-215.9C1349.14,-205.56 1319.89,-192.08 1293.99,-180 1292.21,-179.17 1290.37,-178.31 1288.52,-177.44"/>
<polygon fill="black" stroke="black" points="1289.84,-174.19 1279.3,-173.1 1286.86,-180.53 1289.84,-174.19"/>
</g>
<!-- Open Gripper** -->
<g id="node20" class="node">
<title>Open Gripper**</title>
<ellipse fill="gray" stroke="black" cx="1354.99" cy="-162" rx="51.92" ry="18"/>
<text text-anchor="middle" x="1354.99" y="-159.8" font-family="Times,serif" font-size="9.00">Open Gripper**</text>
</g>
<!-- Insert in tube&#45;&gt;Open Gripper** -->
<g id="edge19" class="edge">
<title>Insert in tube&#45;&gt;Open Gripper**</title>
<path fill="none" stroke="black" d="M1395.64,-215.7C1389.14,-207.27 1381.2,-196.97 1374.07,-187.73"/>
<polygon fill="black" stroke="black" points="1376.69,-185.4 1367.81,-179.62 1371.15,-189.68 1376.69,-185.4"/>
</g>
<!-- Step back* -->
<g id="node21" class="node">
<title>Step back*</title>
<ellipse fill="gray" stroke="black" cx="1463.99" cy="-162" rx="38.87" ry="18"/>
<text text-anchor="middle" x="1463.99" y="-159.8" font-family="Times,serif" font-size="9.00">Step back*</text>
</g>
<!-- Insert in tube&#45;&gt;Step back* -->
<g id="edge20" class="edge">
<title>Insert in tube&#45;&gt;Step back*</title>
<path fill="none" stroke="black" d="M1422.59,-215.7C1429.38,-207.05 1437.7,-196.46 1445.1,-187.04"/>
<polygon fill="black" stroke="black" points="1447.88,-189.17 1451.31,-179.14 1442.38,-184.85 1447.88,-189.17"/>
</g>
<!-- Close Gripper** -->
<g id="node22" class="node">
<title>Close Gripper**</title>
<ellipse fill="gray" stroke="black" cx="1572.99" cy="-162" rx="51.92" ry="18"/>
<text text-anchor="middle" x="1572.99" y="-159.8" font-family="Times,serif" font-size="9.00">Close Gripper**</text>
</g>
<!-- Insert in tube&#45;&gt;Close Gripper** -->
<g id="edge21" class="edge">
<title>Insert in tube&#45;&gt;Close Gripper**</title>
<path fill="none" stroke="black" d="M1449.11,-215.88C1474.34,-205.11 1506.79,-191.26 1532.15,-180.43"/>
<polygon fill="black" stroke="black" points="1533.67,-183.59 1541.5,-176.44 1530.92,-177.15 1533.67,-183.59"/>
</g>
<!-- Push* -->
<g id="node23" class="node">
<title>Push*</title>
<ellipse fill="gray" stroke="black" cx="1669.99" cy="-162" rx="27" ry="18"/>
<text text-anchor="middle" x="1669.99" y="-159.8" font-family="Times,serif" font-size="9.00">Push*</text>
</g>
<!-- Insert in tube&#45;&gt;Push* -->
<g id="edge22" class="edge">
<title>Insert in tube&#45;&gt;Push*</title>
<path fill="none" stroke="black" d="M1455.04,-225.09C1501.09,-216.5 1573.57,-201.12 1633.99,-180 1635.9,-179.33 1637.84,-178.6 1639.79,-177.81"/>
<polygon fill="black" stroke="black" points="1641.59,-180.85 1649.36,-173.65 1638.8,-174.43 1641.59,-180.85"/>
</g>
<!-- Open Gripper*** -->
<g id="node24" class="node">
<title>Open Gripper***</title>
<ellipse fill="gray" stroke="black" cx="1769.99" cy="-162" rx="54.7" ry="18"/>
<text text-anchor="middle" x="1769.99" y="-159.8" font-family="Times,serif" font-size="9.00">Open Gripper***</text>
</g>
<!-- Insert in tube&#45;&gt;Open Gripper*** -->
<g id="edge23" class="edge">
<title>Insert in tube&#45;&gt;Open Gripper***</title>
<path fill="none" stroke="black" d="M1455.02,-226C1513.6,-216.82 1617.78,-199.55 1705.99,-180 1710.4,-179.02 1714.97,-177.94 1719.54,-176.82"/>
<polygon fill="black" stroke="black" points="1720.65,-180.15 1729.49,-174.3 1718.94,-173.36 1720.65,-180.15"/>
</g>
<!-- Approach cable -->
<g id="node25" class="node">
<title>Approach cable</title>
<ellipse fill="gray" stroke="black" cx="1893.99" cy="-162" rx="51.27" ry="18"/>
<text text-anchor="middle" x="1893.99" y="-159.8" font-family="Times,serif" font-size="9.00">Approach cable</text>
</g>
<!-- Insert in tube&#45;&gt;Approach cable -->
<g id="edge24" class="edge">
<title>Insert in tube&#45;&gt;Approach cable</title>
<path fill="none" stroke="black" d="M1455.27,-229.55C1533.76,-223.18 1697.72,-207.64 1833.99,-180 1838.17,-179.15 1842.48,-178.16 1846.79,-177.1"/>
<polygon fill="black" stroke="black" points="1847.97,-180.41 1856.76,-174.5 1846.2,-173.63 1847.97,-180.41"/>
</g>
<!-- Close Gripper*** -->
<g id="node26" class="node">
<title>Close Gripper***</title>
<ellipse fill="gray" stroke="black" cx="2017.99" cy="-162" rx="54.7" ry="18"/>
<text text-anchor="middle" x="2017.99" y="-159.8" font-family="Times,serif" font-size="9.00">Close Gripper***</text>
</g>
<!-- Insert in tube&#45;&gt;Close Gripper*** -->
<g id="edge25" class="edge">
<title>Insert in tube&#45;&gt;Close Gripper***</title>
<path fill="none" stroke="black" d="M1455.27,-231.04C1549.7,-226.49 1771.09,-212.96 1953.99,-180 1958.76,-179.14 1963.7,-178.1 1968.61,-176.97"/>
<polygon fill="black" stroke="black" points="1969.73,-180.3 1978.62,-174.53 1968.07,-173.5 1969.73,-180.3"/>
</g>
<!-- Alignment -->
<g id="node28" class="node">
<title>Alignment</title>
<ellipse fill="gray" stroke="black" cx="2127.99" cy="-162" rx="37.56" ry="18"/>
<text text-anchor="middle" x="2127.99" y="-159.8" font-family="Times,serif" font-size="9.00">Alignment</text>
</g>
<!-- Alignment with the second tube&#45;&gt;Alignment -->
<g id="edge27" class="edge">
<title>Alignment with the second tube&#45;&gt;Alignment</title>
<path fill="none" stroke="black" d="M1961.14,-215.9C1996.91,-206.04 2042.14,-193.05 2081.99,-180 2084.56,-179.16 2087.19,-178.27 2089.84,-177.35"/>
<polygon fill="black" stroke="black" points="2091.15,-180.6 2099.4,-173.94 2088.8,-174 2091.15,-180.6"/>
</g>
<!-- Approach tube* -->
<g id="node30" class="node">
<title>Approach tube*</title>
<ellipse fill="gray" stroke="black" cx="2234.99" cy="-162" rx="51.92" ry="18"/>
<text text-anchor="middle" x="2234.99" y="-159.8" font-family="Times,serif" font-size="9.00">Approach tube*</text>
</g>
<!-- Insert in tube**&#45;&gt;Approach tube* -->
<g id="edge29" class="edge">
<title>Insert in tube**&#45;&gt;Approach tube*</title>
<path fill="none" stroke="black" d="M2234.99,-215.7C2234.99,-207.98 2234.99,-198.71 2234.99,-190.11"/>
<polygon fill="black" stroke="black" points="2238.49,-190.1 2234.99,-180.1 2231.49,-190.1 2238.49,-190.1"/>
</g>
<!-- Insert in tube*** -->
<g id="node31" class="node">
<title>Insert in tube***</title>
<ellipse fill="gray" stroke="black" cx="2358.99" cy="-162" rx="54.04" ry="18"/>
<text text-anchor="middle" x="2358.99" y="-159.8" font-family="Times,serif" font-size="9.00">Insert in tube***</text>
</g>
<!-- Insert in tube**&#45;&gt;Insert in tube*** -->
<g id="edge30" class="edge">
<title>Insert in tube**&#45;&gt;Insert in tube***</title>
<path fill="none" stroke="black" d="M2265.33,-215.88C2283.07,-205.86 2305.55,-193.17 2324.03,-182.73"/>
<polygon fill="black" stroke="black" points="2325.76,-185.78 2332.75,-177.81 2322.32,-179.68 2325.76,-185.78"/>
</g>
</g>
</svg>
