<?xml version="1.0" encoding="UTF-8" standalone="no"?>
<!DOCTYPE svg PUBLIC "-//W3C//DTD SVG 1.1//EN"
 "http://www.w3.org/Graphics/SVG/1.1/DTD/svg11.dtd">
<!-- Generated by graphviz version 2.43.0 (0)
 -->
<!-- Title: pastafarianism Pages: 1 -->
<svg width="963pt" height="404pt"
 viewBox="0.00 0.00 962.84 404.00" xmlns="http://www.w3.org/2000/svg" xmlns:xlink="http://www.w3.org/1999/xlink">
<g id="graph0" class="graph" transform="scale(1 1) rotate(0) translate(4 400)">
<title>pastafarianism</title>
<polygon fill="white" stroke="transparent" points="-4,4 -4,-400 958.84,-400 958.84,4 -4,4"/>
<!-- forward -->
<g id="node1" class="node">
<title>forward</title>
<polygon fill="orange" stroke="black" points="573.49,-396 508.49,-396 508.49,-360 573.49,-360 573.49,-396"/>
<text text-anchor="middle" x="540.99" y="-375.8" font-family="Times,serif" font-size="9.00">Ⓜ forward</text>
</g>
<!-- Pick up branch -->
<g id="node2" class="node">
<title>Pick up branch</title>
<polygon fill="orange" stroke="black" points="339.49,-324 240.49,-324 240.49,-288 339.49,-288 339.49,-324"/>
<text text-anchor="middle" x="289.99" y="-303.8" font-family="Times,serif" font-size="9.00">Ⓜ Pick up branch</text>
</g>
<!-- forward&#45;&gt;Pick up branch -->
<g id="edge1" class="edge">
<title>forward&#45;&gt;Pick up branch</title>
<path fill="none" stroke="black" d="M508.44,-367.92C468.27,-356.72 399.2,-337.46 349.47,-323.59"/>
<polygon fill="black" stroke="black" points="350.37,-320.21 339.8,-320.89 348.49,-326.95 350.37,-320.21"/>
</g>
<!-- Put in clip -->
<g id="node11" class="node">
<title>Put in clip</title>
<polygon fill="orange" stroke="black" points="579.49,-324 502.49,-324 502.49,-288 579.49,-288 579.49,-324"/>
<text text-anchor="middle" x="540.99" y="-303.8" font-family="Times,serif" font-size="9.00">Ⓜ Put in clip</text>
</g>
<!-- forward&#45;&gt;Put in clip -->
<g id="edge10" class="edge">
<title>forward&#45;&gt;Put in clip</title>
<path fill="none" stroke="black" d="M540.99,-359.7C540.99,-351.98 540.99,-342.71 540.99,-334.11"/>
<polygon fill="black" stroke="black" points="544.49,-334.1 540.99,-324.1 537.49,-334.1 544.49,-334.1"/>
</g>
<!-- Close Clip -->
<g id="node14" class="node">
<title>Close Clip</title>
<polygon fill="orange" stroke="black" points="778.49,-324 703.49,-324 703.49,-288 778.49,-288 778.49,-324"/>
<text text-anchor="middle" x="740.99" y="-303.8" font-family="Times,serif" font-size="9.00">Ⓜ Close Clip</text>
</g>
<!-- forward&#45;&gt;Close Clip -->
<g id="edge13" class="edge">
<title>forward&#45;&gt;Close Clip</title>
<path fill="none" stroke="black" d="M573.57,-365.6C606.19,-354.18 656.71,-336.5 693.73,-323.54"/>
<polygon fill="black" stroke="black" points="695.03,-326.8 703.31,-320.19 692.72,-320.19 695.03,-326.8"/>
</g>
<!-- Open if closed -->
<g id="node3" class="node">
<title>Open if closed</title>
<polygon fill="orange" stroke="black" points="136.49,-252 41.49,-252 41.49,-216 136.49,-216 136.49,-252"/>
<text text-anchor="middle" x="88.99" y="-231.8" font-family="Times,serif" font-size="9.00">Ⓜ Open if closed</text>
</g>
<!-- Pick up branch&#45;&gt;Open if closed -->
<g id="edge2" class="edge">
<title>Pick up branch&#45;&gt;Open if closed</title>
<path fill="none" stroke="black" d="M241.08,-287.97C212.45,-278 176.17,-265.36 146.22,-254.93"/>
<polygon fill="black" stroke="black" points="147.33,-251.61 136.73,-251.63 145.03,-258.22 147.33,-251.61"/>
</g>
<!-- Get cable -->
<g id="node8" class="node">
<title>Get cable</title>
<ellipse fill="gray" stroke="black" cx="189.99" cy="-234" rx="35.44" ry="18"/>
<text text-anchor="middle" x="189.99" y="-231.8" font-family="Times,serif" font-size="9.00">Get cable</text>
</g>
<!-- Pick up branch&#45;&gt;Get cable -->
<g id="edge7" class="edge">
<title>Pick up branch&#45;&gt;Get cable</title>
<path fill="none" stroke="black" d="M265.53,-287.88C251.22,-277.86 233.1,-265.18 218.19,-254.74"/>
<polygon fill="black" stroke="black" points="220.04,-251.76 209.84,-248.9 216.03,-257.5 220.04,-251.76"/>
</g>
<!-- Move to cable -->
<g id="node9" class="node">
<title>Move to cable</title>
<ellipse fill="gray" stroke="black" cx="289.99" cy="-234" rx="46.53" ry="18"/>
<text text-anchor="middle" x="289.99" y="-231.8" font-family="Times,serif" font-size="9.00">Move to cable</text>
</g>
<!-- Pick up branch&#45;&gt;Move to cable -->
<g id="edge8" class="edge">
<title>Pick up branch&#45;&gt;Move to cable</title>
<path fill="none" stroke="black" d="M289.99,-287.7C289.99,-279.98 289.99,-270.71 289.99,-262.11"/>
<polygon fill="black" stroke="black" points="293.49,-262.1 289.99,-252.1 286.49,-262.1 293.49,-262.1"/>
</g>
<!-- Close Gripper -->
<g id="node10" class="node">
<title>Close Gripper</title>
<ellipse fill="gray" stroke="black" cx="401.99" cy="-234" rx="46.53" ry="18"/>
<text text-anchor="middle" x="401.99" y="-231.8" font-family="Times,serif" font-size="9.00">Close Gripper</text>
</g>
<!-- Pick up branch&#45;&gt;Close Gripper -->
<g id="edge9" class="edge">
<title>Pick up branch&#45;&gt;Close Gripper</title>
<path fill="none" stroke="black" d="M317.39,-287.88C333.13,-278.04 352.98,-265.63 369.5,-255.31"/>
<polygon fill="black" stroke="black" points="371.67,-258.08 378.29,-249.81 367.96,-252.15 371.67,-258.08"/>
</g>
<!-- Get gripper -->
<g id="node4" class="node">
<title>Get gripper</title>
<ellipse fill="gray" stroke="black" cx="40.99" cy="-162" rx="40.98" ry="18"/>
<text text-anchor="middle" x="40.99" y="-159.8" font-family="Times,serif" font-size="9.00">Get gripper</text>
</g>
<!-- Open if closed&#45;&gt;Get gripper -->
<g id="edge3" class="edge">
<title>Open if closed&#45;&gt;Get gripper</title>
<path fill="none" stroke="black" d="M77.13,-215.7C71.4,-207.35 64.43,-197.18 58.15,-188.02"/>
<polygon fill="black" stroke="black" points="60.93,-185.89 52.39,-179.62 55.16,-189.85 60.93,-185.89"/>
</g>
<!-- Closed -->
<g id="node5" class="node">
<title>Closed</title>
<polygon fill="cyan" stroke="black" points="173.73,-154.54 173.73,-169.46 152.21,-180 121.77,-180 100.25,-169.46 100.25,-154.54 121.77,-144 152.21,-144 173.73,-154.54"/>
<text text-anchor="middle" x="136.99" y="-159.8" font-family="Times,serif" font-size="9.00">Ⓜ Closed</text>
</g>
<!-- Open if closed&#45;&gt;Closed -->
<g id="edge4" class="edge">
<title>Open if closed&#45;&gt;Closed</title>
<path fill="none" stroke="black" d="M100.86,-215.7C106.5,-207.47 113.35,-197.48 119.56,-188.42"/>
<polygon fill="black" stroke="black" points="122.49,-190.33 125.26,-180.1 116.72,-186.37 122.49,-190.33"/>
</g>
<!-- check open -->
<g id="node6" class="node">
<title>check open</title>
<ellipse fill="gray" stroke="black" cx="84.99" cy="-90" rx="39.67" ry="18"/>
<text text-anchor="middle" x="84.99" y="-87.8" font-family="Times,serif" font-size="9.00">check open</text>
</g>
<!-- Closed&#45;&gt;check open -->
<g id="edge5" class="edge">
<title>Closed&#45;&gt;check open</title>
<path fill="none" stroke="black" d="M124.14,-143.7C117.87,-135.27 110.23,-124.97 103.36,-115.73"/>
<polygon fill="black" stroke="black" points="106.11,-113.56 97.34,-107.62 100.49,-117.74 106.11,-113.56"/>
</g>
<!-- Open Gripper -->
<g id="node7" class="node">
<title>Open Gripper</title>
<ellipse fill="gray" stroke="black" cx="189.99" cy="-90" rx="46.53" ry="18"/>
<text text-anchor="middle" x="189.99" y="-87.8" font-family="Times,serif" font-size="9.00">Open Gripper</text>
</g>
<!-- Closed&#45;&gt;Open Gripper -->
<g id="edge6" class="edge">
<title>Closed&#45;&gt;Open Gripper</title>
<path fill="none" stroke="black" d="M150.09,-143.7C156.48,-135.27 164.27,-124.97 171.27,-115.73"/>
<polygon fill="black" stroke="black" points="174.16,-117.71 177.41,-107.62 168.58,-113.48 174.16,-117.71"/>
</g>
<!-- Move -->
<g id="node12" class="node">
<title>Move</title>
<ellipse fill="gray" stroke="black" cx="493.99" cy="-234" rx="27" ry="18"/>
<text text-anchor="middle" x="493.99" y="-231.8" font-family="Times,serif" font-size="9.00">Move</text>
</g>
<!-- Put in clip&#45;&gt;Move -->
<g id="edge11" class="edge">
<title>Put in clip&#45;&gt;Move</title>
<path fill="none" stroke="black" d="M529.37,-287.7C523.61,-279.11 516.54,-268.58 510.25,-259.21"/>
<polygon fill="black" stroke="black" points="512.99,-257.02 504.51,-250.67 507.18,-260.92 512.99,-257.02"/>
</g>
<!-- Open Gripper* -->
<g id="node13" class="node">
<title>Open Gripper*</title>
<ellipse fill="gray" stroke="black" cx="588.99" cy="-234" rx="49.8" ry="18"/>
<text text-anchor="middle" x="588.99" y="-231.8" font-family="Times,serif" font-size="9.00">Open Gripper*</text>
</g>
<!-- Put in clip&#45;&gt;Open Gripper* -->
<g id="edge12" class="edge">
<title>Put in clip&#45;&gt;Open Gripper*</title>
<path fill="none" stroke="black" d="M552.86,-287.7C558.58,-279.35 565.55,-269.18 571.84,-260.02"/>
<polygon fill="black" stroke="black" points="574.82,-261.85 577.59,-251.62 569.05,-257.89 574.82,-261.85"/>
</g>
<!-- Grab Clip -->
<g id="node15" class="node">
<title>Grab Clip</title>
<polygon fill="orange" stroke="black" points="730.99,-252 656.99,-252 656.99,-216 730.99,-216 730.99,-252"/>
<text text-anchor="middle" x="693.99" y="-231.8" font-family="Times,serif" font-size="9.00">Ⓜ Grab Clip</text>
</g>
<!-- Close Clip&#45;&gt;Grab Clip -->
<g id="edge14" class="edge">
<title>Close Clip&#45;&gt;Grab Clip</title>
<path fill="none" stroke="black" d="M729.37,-287.7C723.85,-279.47 717.14,-269.48 711.06,-260.42"/>
<polygon fill="black" stroke="black" points="713.96,-258.46 705.48,-252.1 708.14,-262.36 713.96,-258.46"/>
</g>
<!-- Move close -->
<g id="node24" class="node">
<title>Move close</title>
<ellipse fill="gray" stroke="black" cx="787.99" cy="-234" rx="39.02" ry="18"/>
<text text-anchor="middle" x="787.99" y="-231.8" font-family="Times,serif" font-size="9.00">Move close</text>
</g>
<!-- Close Clip&#45;&gt;Move close -->
<g id="edge23" class="edge">
<title>Close Clip&#45;&gt;Move close</title>
<path fill="none" stroke="black" d="M752.61,-287.7C758.21,-279.35 765.04,-269.18 771.2,-260.02"/>
<polygon fill="black" stroke="black" points="774.16,-261.88 776.83,-251.62 768.35,-257.97 774.16,-261.88"/>
</g>
<!-- Open Gripper*** -->
<g id="node25" class="node">
<title>Open Gripper***</title>
<ellipse fill="gray" stroke="black" cx="899.99" cy="-234" rx="54.7" ry="18"/>
<text text-anchor="middle" x="899.99" y="-231.8" font-family="Times,serif" font-size="9.00">Open Gripper***</text>
</g>
<!-- Close Clip&#45;&gt;Open Gripper*** -->
<g id="edge24" class="edge">
<title>Close Clip&#45;&gt;Open Gripper***</title>
<path fill="none" stroke="black" d="M778.67,-288.41C802.94,-277.73 834.47,-263.85 859.31,-252.91"/>
<polygon fill="black" stroke="black" points="860.73,-256.11 868.47,-248.88 857.91,-249.7 860.73,-256.11"/>
</g>
<!-- Open if closed* -->
<g id="node16" class="node">
<title>Open if closed*</title>
<polygon fill="orange" stroke="black" points="599.49,-180 500.49,-180 500.49,-144 599.49,-144 599.49,-180"/>
<text text-anchor="middle" x="549.99" y="-159.8" font-family="Times,serif" font-size="9.00">Ⓜ Open if closed*</text>
</g>
<!-- Grab Clip&#45;&gt;Open if closed* -->
<g id="edge15" class="edge">
<title>Grab Clip&#45;&gt;Open if closed*</title>
<path fill="none" stroke="black" d="M658.77,-215.88C639.41,-206.47 615.22,-194.71 594.56,-184.67"/>
<polygon fill="black" stroke="black" points="595.88,-181.41 585.35,-180.19 592.82,-187.71 595.88,-181.41"/>
</g>
<!-- Get clip -->
<g id="node21" class="node">
<title>Get clip</title>
<ellipse fill="gray" stroke="black" cx="647.99" cy="-162" rx="30.7" ry="18"/>
<text text-anchor="middle" x="647.99" y="-159.8" font-family="Times,serif" font-size="9.00">Get clip</text>
</g>
<!-- Grab Clip&#45;&gt;Get clip -->
<g id="edge20" class="edge">
<title>Grab Clip&#45;&gt;Get clip</title>
<path fill="none" stroke="black" d="M682.62,-215.7C677.06,-207.23 670.26,-196.89 664.17,-187.61"/>
<polygon fill="black" stroke="black" points="667.02,-185.58 658.6,-179.14 661.17,-189.42 667.02,-185.58"/>
</g>
<!-- Move to clip -->
<g id="node22" class="node">
<title>Move to clip</title>
<ellipse fill="gray" stroke="black" cx="738.99" cy="-162" rx="42.95" ry="18"/>
<text text-anchor="middle" x="738.99" y="-159.8" font-family="Times,serif" font-size="9.00">Move to clip</text>
</g>
<!-- Grab Clip&#45;&gt;Move to clip -->
<g id="edge21" class="edge">
<title>Grab Clip&#45;&gt;Move to clip</title>
<path fill="none" stroke="black" d="M705.12,-215.7C710.42,-207.44 716.88,-197.39 722.73,-188.3"/>
<polygon fill="black" stroke="black" points="725.84,-189.93 728.31,-179.62 719.95,-186.14 725.84,-189.93"/>
</g>
<!-- Close Gripper* -->
<g id="node23" class="node">
<title>Close Gripper*</title>
<ellipse fill="gray" stroke="black" cx="848.99" cy="-162" rx="49.8" ry="18"/>
<text text-anchor="middle" x="848.99" y="-159.8" font-family="Times,serif" font-size="9.00">Close Gripper*</text>
</g>
<!-- Grab Clip&#45;&gt;Close Gripper* -->
<g id="edge22" class="edge">
<title>Grab Clip&#45;&gt;Close Gripper*</title>
<path fill="none" stroke="black" d="M731.12,-216.23C754.92,-205.49 785.76,-191.55 809.93,-180.64"/>
<polygon fill="black" stroke="black" points="811.5,-183.77 819.17,-176.47 808.62,-177.39 811.5,-183.77"/>
</g>
<!-- Get gripper* -->
<g id="node17" class="node">
<title>Get gripper*</title>
<ellipse fill="gray" stroke="black" cx="498.99" cy="-90" rx="43.76" ry="18"/>
<text text-anchor="middle" x="498.99" y="-87.8" font-family="Times,serif" font-size="9.00">Get gripper*</text>
</g>
<!-- Open if closed*&#45;&gt;Get gripper* -->
<g id="edge16" class="edge">
<title>Open if closed*&#45;&gt;Get gripper*</title>
<path fill="none" stroke="black" d="M537.39,-143.7C531.24,-135.27 523.74,-124.97 517.01,-115.73"/>
<polygon fill="black" stroke="black" points="519.82,-113.64 511.1,-107.62 514.16,-117.77 519.82,-113.64"/>
</g>
<!-- Closed* -->
<g id="node18" class="node">
<title>Closed*</title>
<polygon fill="cyan" stroke="black" points="640.98,-82.54 640.98,-97.46 617.56,-108 584.43,-108 561,-97.46 561,-82.54 584.43,-72 617.56,-72 640.98,-82.54"/>
<text text-anchor="middle" x="600.99" y="-87.8" font-family="Times,serif" font-size="9.00">Ⓜ Closed*</text>
</g>
<!-- Open if closed*&#45;&gt;Closed* -->
<g id="edge17" class="edge">
<title>Open if closed*&#45;&gt;Closed*</title>
<path fill="none" stroke="black" d="M562.6,-143.7C568.59,-135.47 575.87,-125.48 582.47,-116.42"/>
<polygon fill="black" stroke="black" points="585.47,-118.25 588.53,-108.1 579.81,-114.13 585.47,-118.25"/>
</g>
<!-- check open* -->
<g id="node19" class="node">
<title>check open*</title>
<ellipse fill="gray" stroke="black" cx="543.99" cy="-18" rx="42.95" ry="18"/>
<text text-anchor="middle" x="543.99" y="-15.8" font-family="Times,serif" font-size="9.00">check open*</text>
</g>
<!-- Closed*&#45;&gt;check open* -->
<g id="edge18" class="edge">
<title>Closed*&#45;&gt;check open*</title>
<path fill="none" stroke="black" d="M586.9,-71.7C579.86,-63.05 571.24,-52.46 563.57,-43.04"/>
<polygon fill="black" stroke="black" points="566.17,-40.69 557.14,-35.14 560.74,-45.11 566.17,-40.69"/>
</g>
<!-- Open Gripper** -->
<g id="node20" class="node">
<title>Open Gripper**</title>
<ellipse fill="gray" stroke="black" cx="656.99" cy="-18" rx="51.92" ry="18"/>
<text text-anchor="middle" x="656.99" y="-15.8" font-family="Times,serif" font-size="9.00">Open Gripper**</text>
</g>
<!-- Closed*&#45;&gt;Open Gripper** -->
<g id="edge19" class="edge">
<title>Closed*&#45;&gt;Open Gripper**</title>
<path fill="none" stroke="black" d="M614.83,-71.7C621.65,-63.18 629.98,-52.76 637.43,-43.45"/>
<polygon fill="black" stroke="black" points="640.18,-45.62 643.69,-35.62 634.71,-41.24 640.18,-45.62"/>
</g>
</g>
</svg>
