<?xml version="1.0" encoding="UTF-8" standalone="no"?>
<!DOCTYPE svg PUBLIC "-//W3C//DTD SVG 1.1//EN"
 "http://www.w3.org/Graphics/SVG/1.1/DTD/svg11.dtd">
<!-- Generated by graphviz version 2.43.0 (0)
 -->
<!-- Title: pastafarianism Pages: 1 -->
<svg width="1124pt" height="404pt"
 viewBox="0.00 0.00 1123.84 404.00" xmlns="http://www.w3.org/2000/svg" xmlns:xlink="http://www.w3.org/1999/xlink">
<g id="graph0" class="graph" transform="scale(1 1) rotate(0) translate(4 400)">
<title>pastafarianism</title>
<polygon fill="white" stroke="transparent" points="-4,4 -4,-400 1119.84,-400 1119.84,4 -4,4"/>
<!-- inverse -->
<g id="node1" class="node">
<title>inverse</title>
<polygon fill="orange" stroke="black" points="732.99,-396 670.99,-396 670.99,-360 732.99,-360 732.99,-396"/>
<text text-anchor="middle" x="701.99" y="-375.8" font-family="Times,serif" font-size="9.00">Ⓜ inverse</text>
</g>
<!-- Open Clip -->
<g id="node2" class="node">
<title>Open Clip</title>
<polygon fill="orange" stroke="black" points="416.49,-324 341.49,-324 341.49,-288 416.49,-288 416.49,-324"/>
<text text-anchor="middle" x="378.99" y="-303.8" font-family="Times,serif" font-size="9.00">Ⓜ Open Clip</text>
</g>
<!-- inverse&#45;&gt;Open Clip -->
<g id="edge1" class="edge">
<title>inverse&#45;&gt;Open Clip</title>
<path fill="none" stroke="black" d="M670.73,-370.22C613.95,-357.92 493.6,-331.84 426.58,-317.31"/>
<polygon fill="black" stroke="black" points="427.21,-313.87 416.69,-315.17 425.73,-320.71 427.21,-313.87"/>
</g>
<!-- Pick up branch -->
<g id="node14" class="node">
<title>Pick up branch</title>
<polygon fill="orange" stroke="black" points="751.49,-324 652.49,-324 652.49,-288 751.49,-288 751.49,-324"/>
<text text-anchor="middle" x="701.99" y="-303.8" font-family="Times,serif" font-size="9.00">Ⓜ Pick up branch</text>
</g>
<!-- inverse&#45;&gt;Pick up branch -->
<g id="edge13" class="edge">
<title>inverse&#45;&gt;Pick up branch</title>
<path fill="none" stroke="black" d="M701.99,-359.7C701.99,-351.98 701.99,-342.71 701.99,-334.11"/>
<polygon fill="black" stroke="black" points="705.49,-334.1 701.99,-324.1 698.49,-334.1 705.49,-334.1"/>
</g>
<!-- Remove from clip -->
<g id="node23" class="node">
<title>Remove from clip</title>
<polygon fill="orange" stroke="black" points="1015.49,-324 906.49,-324 906.49,-288 1015.49,-288 1015.49,-324"/>
<text text-anchor="middle" x="960.99" y="-303.8" font-family="Times,serif" font-size="9.00">Ⓜ Remove from clip</text>
</g>
<!-- inverse&#45;&gt;Remove from clip -->
<g id="edge22" class="edge">
<title>inverse&#45;&gt;Remove from clip</title>
<path fill="none" stroke="black" d="M733.23,-368.56C773.43,-357.69 844.26,-338.55 896.29,-324.49"/>
<polygon fill="black" stroke="black" points="897.36,-327.82 906.1,-321.84 895.53,-321.07 897.36,-327.82"/>
</g>
<!-- Grab Clip -->
<g id="node3" class="node">
<title>Grab Clip</title>
<polygon fill="orange" stroke="black" points="266.99,-252 192.99,-252 192.99,-216 266.99,-216 266.99,-252"/>
<text text-anchor="middle" x="229.99" y="-231.8" font-family="Times,serif" font-size="9.00">Ⓜ Grab Clip</text>
</g>
<!-- Open Clip&#45;&gt;Grab Clip -->
<g id="edge2" class="edge">
<title>Open Clip&#45;&gt;Grab Clip</title>
<path fill="none" stroke="black" d="M342.54,-287.88C322.35,-278.39 297.07,-266.51 275.58,-256.42"/>
<polygon fill="black" stroke="black" points="276.86,-253.15 266.32,-252.07 273.89,-259.49 276.86,-253.15"/>
</g>
<!-- Move Open -->
<g id="node12" class="node">
<title>Move Open</title>
<ellipse fill="gray" stroke="black" cx="324.99" cy="-234" rx="39.67" ry="18"/>
<text text-anchor="middle" x="324.99" y="-231.8" font-family="Times,serif" font-size="9.00">Move Open</text>
</g>
<!-- Open Clip&#45;&gt;Move Open -->
<g id="edge11" class="edge">
<title>Open Clip&#45;&gt;Move Open</title>
<path fill="none" stroke="black" d="M365.64,-287.7C359.04,-279.14 350.97,-268.67 343.76,-259.33"/>
<polygon fill="black" stroke="black" points="346.33,-256.92 337.45,-251.14 340.78,-261.2 346.33,-256.92"/>
</g>
<!-- Open Gripper* -->
<g id="node13" class="node">
<title>Open Gripper*</title>
<ellipse fill="gray" stroke="black" cx="431.99" cy="-234" rx="49.8" ry="18"/>
<text text-anchor="middle" x="431.99" y="-231.8" font-family="Times,serif" font-size="9.00">Open Gripper*</text>
</g>
<!-- Open Clip&#45;&gt;Open Gripper* -->
<g id="edge12" class="edge">
<title>Open Clip&#45;&gt;Open Gripper*</title>
<path fill="none" stroke="black" d="M392.09,-287.7C398.48,-279.27 406.27,-268.97 413.27,-259.73"/>
<polygon fill="black" stroke="black" points="416.16,-261.71 419.41,-251.62 410.58,-257.48 416.16,-261.71"/>
</g>
<!-- Open if closed -->
<g id="node4" class="node">
<title>Open if closed</title>
<polygon fill="orange" stroke="black" points="136.49,-180 41.49,-180 41.49,-144 136.49,-144 136.49,-180"/>
<text text-anchor="middle" x="88.99" y="-159.8" font-family="Times,serif" font-size="9.00">Ⓜ Open if closed</text>
</g>
<!-- Grab Clip&#45;&gt;Open if closed -->
<g id="edge3" class="edge">
<title>Grab Clip&#45;&gt;Open if closed</title>
<path fill="none" stroke="black" d="M195.5,-215.88C176.55,-206.47 152.86,-194.71 132.64,-184.67"/>
<polygon fill="black" stroke="black" points="134.13,-181.5 123.62,-180.19 131.02,-187.77 134.13,-181.5"/>
</g>
<!-- Get clip -->
<g id="node9" class="node">
<title>Get clip</title>
<ellipse fill="gray" stroke="black" cx="184.99" cy="-162" rx="30.7" ry="18"/>
<text text-anchor="middle" x="184.99" y="-159.8" font-family="Times,serif" font-size="9.00">Get clip</text>
</g>
<!-- Grab Clip&#45;&gt;Get clip -->
<g id="edge8" class="edge">
<title>Grab Clip&#45;&gt;Get clip</title>
<path fill="none" stroke="black" d="M218.87,-215.7C213.42,-207.23 206.78,-196.89 200.81,-187.61"/>
<polygon fill="black" stroke="black" points="203.72,-185.66 195.37,-179.14 197.83,-189.45 203.72,-185.66"/>
</g>
<!-- Move to clip -->
<g id="node10" class="node">
<title>Move to clip</title>
<ellipse fill="gray" stroke="black" cx="275.99" cy="-162" rx="42.95" ry="18"/>
<text text-anchor="middle" x="275.99" y="-159.8" font-family="Times,serif" font-size="9.00">Move to clip</text>
</g>
<!-- Grab Clip&#45;&gt;Move to clip -->
<g id="edge9" class="edge">
<title>Grab Clip&#45;&gt;Move to clip</title>
<path fill="none" stroke="black" d="M241.36,-215.7C246.85,-207.35 253.53,-197.18 259.55,-188.02"/>
<polygon fill="black" stroke="black" points="262.5,-189.9 265.07,-179.62 256.65,-186.06 262.5,-189.9"/>
</g>
<!-- Close Gripper -->
<g id="node11" class="node">
<title>Close Gripper</title>
<ellipse fill="gray" stroke="black" cx="382.99" cy="-162" rx="46.53" ry="18"/>
<text text-anchor="middle" x="382.99" y="-159.8" font-family="Times,serif" font-size="9.00">Close Gripper</text>
</g>
<!-- Grab Clip&#45;&gt;Close Gripper -->
<g id="edge10" class="edge">
<title>Grab Clip&#45;&gt;Close Gripper</title>
<path fill="none" stroke="black" d="M267.03,-216.05C290.5,-205.32 320.8,-191.45 344.55,-180.59"/>
<polygon fill="black" stroke="black" points="346.31,-183.63 353.95,-176.29 343.4,-177.27 346.31,-183.63"/>
</g>
<!-- Get gripper -->
<g id="node5" class="node">
<title>Get gripper</title>
<ellipse fill="gray" stroke="black" cx="40.99" cy="-90" rx="40.98" ry="18"/>
<text text-anchor="middle" x="40.99" y="-87.8" font-family="Times,serif" font-size="9.00">Get gripper</text>
</g>
<!-- Open if closed&#45;&gt;Get gripper -->
<g id="edge4" class="edge">
<title>Open if closed&#45;&gt;Get gripper</title>
<path fill="none" stroke="black" d="M77.13,-143.7C71.4,-135.35 64.43,-125.18 58.15,-116.02"/>
<polygon fill="black" stroke="black" points="60.93,-113.89 52.39,-107.62 55.16,-117.85 60.93,-113.89"/>
</g>
<!-- Closed -->
<g id="node6" class="node">
<title>Closed</title>
<polygon fill="cyan" stroke="black" points="173.73,-82.54 173.73,-97.46 152.21,-108 121.77,-108 100.25,-97.46 100.25,-82.54 121.77,-72 152.21,-72 173.73,-82.54"/>
<text text-anchor="middle" x="136.99" y="-87.8" font-family="Times,serif" font-size="9.00">Ⓜ Closed</text>
</g>
<!-- Open if closed&#45;&gt;Closed -->
<g id="edge5" class="edge">
<title>Open if closed&#45;&gt;Closed</title>
<path fill="none" stroke="black" d="M100.86,-143.7C106.5,-135.47 113.35,-125.48 119.56,-116.42"/>
<polygon fill="black" stroke="black" points="122.49,-118.33 125.26,-108.1 116.72,-114.37 122.49,-118.33"/>
</g>
<!-- check open -->
<g id="node7" class="node">
<title>check open</title>
<ellipse fill="gray" stroke="black" cx="84.99" cy="-18" rx="39.67" ry="18"/>
<text text-anchor="middle" x="84.99" y="-15.8" font-family="Times,serif" font-size="9.00">check open</text>
</g>
<!-- Closed&#45;&gt;check open -->
<g id="edge6" class="edge">
<title>Closed&#45;&gt;check open</title>
<path fill="none" stroke="black" d="M124.14,-71.7C117.87,-63.27 110.23,-52.97 103.36,-43.73"/>
<polygon fill="black" stroke="black" points="106.11,-41.56 97.34,-35.62 100.49,-45.74 106.11,-41.56"/>
</g>
<!-- Open Gripper -->
<g id="node8" class="node">
<title>Open Gripper</title>
<ellipse fill="gray" stroke="black" cx="189.99" cy="-18" rx="46.53" ry="18"/>
<text text-anchor="middle" x="189.99" y="-15.8" font-family="Times,serif" font-size="9.00">Open Gripper</text>
</g>
<!-- Closed&#45;&gt;Open Gripper -->
<g id="edge7" class="edge">
<title>Closed&#45;&gt;Open Gripper</title>
<path fill="none" stroke="black" d="M150.09,-71.7C156.48,-63.27 164.27,-52.97 171.27,-43.73"/>
<polygon fill="black" stroke="black" points="174.16,-45.71 177.41,-35.62 168.58,-41.48 174.16,-45.71"/>
</g>
<!-- Open if closed* -->
<g id="node15" class="node">
<title>Open if closed*</title>
<polygon fill="orange" stroke="black" points="598.49,-252 499.49,-252 499.49,-216 598.49,-216 598.49,-252"/>
<text text-anchor="middle" x="548.99" y="-231.8" font-family="Times,serif" font-size="9.00">Ⓜ Open if closed*</text>
</g>
<!-- Pick up branch&#45;&gt;Open if closed* -->
<g id="edge14" class="edge">
<title>Pick up branch&#45;&gt;Open if closed*</title>
<path fill="none" stroke="black" d="M664.56,-287.88C643.74,-278.35 617.64,-266.41 595.51,-256.28"/>
<polygon fill="black" stroke="black" points="596.85,-253.05 586.3,-252.07 593.94,-259.41 596.85,-253.05"/>
</g>
<!-- Get cable -->
<g id="node20" class="node">
<title>Get cable</title>
<ellipse fill="gray" stroke="black" cx="651.99" cy="-234" rx="35.44" ry="18"/>
<text text-anchor="middle" x="651.99" y="-231.8" font-family="Times,serif" font-size="9.00">Get cable</text>
</g>
<!-- Pick up branch&#45;&gt;Get cable -->
<g id="edge19" class="edge">
<title>Pick up branch&#45;&gt;Get cable</title>
<path fill="none" stroke="black" d="M689.63,-287.7C683.52,-279.14 676.04,-268.67 669.37,-259.33"/>
<polygon fill="black" stroke="black" points="672.18,-257.25 663.52,-251.14 666.49,-261.32 672.18,-257.25"/>
</g>
<!-- Move to cable -->
<g id="node21" class="node">
<title>Move to cable</title>
<ellipse fill="gray" stroke="black" cx="751.99" cy="-234" rx="46.53" ry="18"/>
<text text-anchor="middle" x="751.99" y="-231.8" font-family="Times,serif" font-size="9.00">Move to cable</text>
</g>
<!-- Pick up branch&#45;&gt;Move to cable -->
<g id="edge20" class="edge">
<title>Pick up branch&#45;&gt;Move to cable</title>
<path fill="none" stroke="black" d="M714.35,-287.7C720.31,-279.35 727.57,-269.18 734.12,-260.02"/>
<polygon fill="black" stroke="black" points="737.15,-261.79 740.12,-251.62 731.46,-257.73 737.15,-261.79"/>
</g>
<!-- Close Gripper* -->
<g id="node22" class="node">
<title>Close Gripper*</title>
<ellipse fill="gray" stroke="black" cx="865.99" cy="-234" rx="49.8" ry="18"/>
<text text-anchor="middle" x="865.99" y="-231.8" font-family="Times,serif" font-size="9.00">Close Gripper*</text>
</g>
<!-- Pick up branch&#45;&gt;Close Gripper* -->
<g id="edge21" class="edge">
<title>Pick up branch&#45;&gt;Close Gripper*</title>
<path fill="none" stroke="black" d="M742.11,-287.88C767.5,-277.04 800.22,-263.07 825.66,-252.22"/>
<polygon fill="black" stroke="black" points="827.2,-255.36 835.02,-248.22 824.45,-248.93 827.2,-255.36"/>
</g>
<!-- Get gripper* -->
<g id="node16" class="node">
<title>Get gripper*</title>
<ellipse fill="gray" stroke="black" cx="520.99" cy="-162" rx="43.76" ry="18"/>
<text text-anchor="middle" x="520.99" y="-159.8" font-family="Times,serif" font-size="9.00">Get gripper*</text>
</g>
<!-- Open if closed*&#45;&gt;Get gripper* -->
<g id="edge15" class="edge">
<title>Open if closed*&#45;&gt;Get gripper*</title>
<path fill="none" stroke="black" d="M542.07,-215.7C538.92,-207.81 535.11,-198.3 531.61,-189.55"/>
<polygon fill="black" stroke="black" points="534.8,-188.09 527.83,-180.1 528.3,-190.69 534.8,-188.09"/>
</g>
<!-- Closed* -->
<g id="node17" class="node">
<title>Closed*</title>
<polygon fill="cyan" stroke="black" points="662.98,-154.54 662.98,-169.46 639.56,-180 606.43,-180 583,-169.46 583,-154.54 606.43,-144 639.56,-144 662.98,-154.54"/>
<text text-anchor="middle" x="622.99" y="-159.8" font-family="Times,serif" font-size="9.00">Ⓜ Closed*</text>
</g>
<!-- Open if closed*&#45;&gt;Closed* -->
<g id="edge16" class="edge">
<title>Open if closed*&#45;&gt;Closed*</title>
<path fill="none" stroke="black" d="M567.28,-215.7C576.56,-206.92 587.97,-196.13 598.04,-186.61"/>
<polygon fill="black" stroke="black" points="600.56,-189.04 605.42,-179.62 595.75,-183.95 600.56,-189.04"/>
</g>
<!-- check open* -->
<g id="node18" class="node">
<title>check open*</title>
<ellipse fill="gray" stroke="black" cx="565.99" cy="-90" rx="42.95" ry="18"/>
<text text-anchor="middle" x="565.99" y="-87.8" font-family="Times,serif" font-size="9.00">check open*</text>
</g>
<!-- Closed*&#45;&gt;check open* -->
<g id="edge17" class="edge">
<title>Closed*&#45;&gt;check open*</title>
<path fill="none" stroke="black" d="M608.9,-143.7C601.86,-135.05 593.24,-124.46 585.57,-115.04"/>
<polygon fill="black" stroke="black" points="588.17,-112.69 579.14,-107.14 582.74,-117.11 588.17,-112.69"/>
</g>
<!-- Open Gripper** -->
<g id="node19" class="node">
<title>Open Gripper**</title>
<ellipse fill="gray" stroke="black" cx="678.99" cy="-90" rx="51.92" ry="18"/>
<text text-anchor="middle" x="678.99" y="-87.8" font-family="Times,serif" font-size="9.00">Open Gripper**</text>
</g>
<!-- Closed*&#45;&gt;Open Gripper** -->
<g id="edge18" class="edge">
<title>Closed*&#45;&gt;Open Gripper**</title>
<path fill="none" stroke="black" d="M636.83,-143.7C643.65,-135.18 651.98,-124.76 659.43,-115.45"/>
<polygon fill="black" stroke="black" points="662.18,-117.62 665.69,-107.62 656.71,-113.24 662.18,-117.62"/>
</g>
<!-- Move -->
<g id="node24" class="node">
<title>Move</title>
<ellipse fill="gray" stroke="black" cx="960.99" cy="-234" rx="27" ry="18"/>
<text text-anchor="middle" x="960.99" y="-231.8" font-family="Times,serif" font-size="9.00">Move</text>
</g>
<!-- Remove from clip&#45;&gt;Move -->
<g id="edge23" class="edge">
<title>Remove from clip&#45;&gt;Move</title>
<path fill="none" stroke="black" d="M960.99,-287.7C960.99,-279.98 960.99,-270.71 960.99,-262.11"/>
<polygon fill="black" stroke="black" points="964.49,-262.1 960.99,-252.1 957.49,-262.1 964.49,-262.1"/>
</g>
<!-- Open Gripper*** -->
<g id="node25" class="node">
<title>Open Gripper***</title>
<ellipse fill="gray" stroke="black" cx="1060.99" cy="-234" rx="54.7" ry="18"/>
<text text-anchor="middle" x="1060.99" y="-231.8" font-family="Times,serif" font-size="9.00">Open Gripper***</text>
</g>
<!-- Remove from clip&#45;&gt;Open Gripper*** -->
<g id="edge24" class="edge">
<title>Remove from clip&#45;&gt;Open Gripper***</title>
<path fill="none" stroke="black" d="M985.45,-287.88C998.96,-278.42 1015.86,-266.59 1030.25,-256.52"/>
<polygon fill="black" stroke="black" points="1032.64,-259.12 1038.83,-250.51 1028.63,-253.38 1032.64,-259.12"/>
</g>
</g>
</svg>
